%TF.GenerationSoftware,KiCad,Pcbnew,7.0.7*%
%TF.CreationDate,2023-10-30T18:48:05-04:00*%
%TF.ProjectId,TEJ4M-Unit-4-07,54454a34-4d2d-4556-9e69-742d342d3037,rev?*%
%TF.SameCoordinates,Original*%
%TF.FileFunction,Copper,L1,Top*%
%TF.FilePolarity,Positive*%
%FSLAX46Y46*%
G04 Gerber Fmt 4.6, Leading zero omitted, Abs format (unit mm)*
G04 Created by KiCad (PCBNEW 7.0.7) date 2023-10-30 18:48:05*
%MOMM*%
%LPD*%
G01*
G04 APERTURE LIST*
%TA.AperFunction,ComponentPad*%
%ADD10C,1.400000*%
%TD*%
%TA.AperFunction,ComponentPad*%
%ADD11O,1.400000X1.400000*%
%TD*%
%TA.AperFunction,ComponentPad*%
%ADD12C,5.400000*%
%TD*%
%TA.AperFunction,ComponentPad*%
%ADD13R,1.600000X1.600000*%
%TD*%
%TA.AperFunction,ComponentPad*%
%ADD14O,1.600000X1.600000*%
%TD*%
%TA.AperFunction,ComponentPad*%
%ADD15C,1.800000*%
%TD*%
%TA.AperFunction,ComponentPad*%
%ADD16R,1.800000X1.800000*%
%TD*%
%TA.AperFunction,ViaPad*%
%ADD17C,0.800000*%
%TD*%
%TA.AperFunction,Conductor*%
%ADD18C,0.250000*%
%TD*%
G04 APERTURE END LIST*
D10*
%TO.P,R4,1*%
%TO.N,Net-(R4-Pad1)*%
X99900000Y-107925000D03*
D11*
%TO.P,R4,2*%
%TO.N,GND*%
X94820000Y-107925000D03*
%TD*%
D10*
%TO.P,R3,1*%
%TO.N,GND*%
X147080000Y-108000000D03*
D11*
%TO.P,R3,2*%
%TO.N,Net-(R3-Pad2)*%
X142000000Y-108000000D03*
%TD*%
%TO.P,R2,2*%
%TO.N,GND*%
X112180000Y-64925000D03*
D10*
%TO.P,R2,1*%
%TO.N,Net-(D2-K)*%
X107100000Y-64925000D03*
%TD*%
D11*
%TO.P,R1,2*%
%TO.N,GND*%
X137080000Y-64925000D03*
D10*
%TO.P,R1,1*%
%TO.N,Net-(D1-K)*%
X132000000Y-64925000D03*
%TD*%
D12*
%TO.P,H4,1,1*%
%TO.N,GND*%
X90000000Y-120000000D03*
%TD*%
%TO.P,H3,1,1*%
%TO.N,GND*%
X150000000Y-120000000D03*
%TD*%
%TO.P,H2,1,1*%
%TO.N,GND*%
X150000000Y-60000000D03*
%TD*%
%TO.P,H1,1,1*%
%TO.N,GND*%
X90000000Y-60000000D03*
%TD*%
D13*
%TO.P,U4,1*%
%TO.N,+5V*%
X129200000Y-108200000D03*
D14*
%TO.P,U4,2*%
%TO.N,N/C*%
X129200000Y-110740000D03*
%TO.P,U4,3*%
X129200000Y-113280000D03*
%TO.P,U4,4*%
X129200000Y-115820000D03*
%TO.P,U4,5*%
X136820000Y-115820000D03*
%TO.P,U4,6*%
X136820000Y-113280000D03*
%TO.P,U4,7*%
X136820000Y-110740000D03*
%TO.P,U4,8*%
%TO.N,Net-(R3-Pad2)*%
X136820000Y-108200000D03*
%TD*%
%TO.P,U3,8*%
%TO.N,Net-(R4-Pad1)*%
X111820000Y-108200000D03*
%TO.P,U3,7*%
%TO.N,N/C*%
X111820000Y-110740000D03*
%TO.P,U3,6*%
X111820000Y-113280000D03*
%TO.P,U3,5*%
X111820000Y-115820000D03*
%TO.P,U3,4*%
X104200000Y-115820000D03*
%TO.P,U3,3*%
X104200000Y-113280000D03*
%TO.P,U3,2*%
X104200000Y-110740000D03*
D13*
%TO.P,U3,1*%
%TO.N,+5V*%
X104200000Y-108200000D03*
%TD*%
D14*
%TO.P,U2,14*%
%TO.N,N/C*%
X138060000Y-81375000D03*
%TO.P,U2,13*%
X138060000Y-83915000D03*
%TO.P,U2,12*%
X138060000Y-86455000D03*
%TO.P,U2,11*%
X138060000Y-88995000D03*
%TO.P,U2,10*%
X138060000Y-91535000D03*
%TO.P,U2,9*%
X138060000Y-94075000D03*
%TO.P,U2,8*%
X138060000Y-96615000D03*
%TO.P,U2,7*%
X127900000Y-96615000D03*
%TO.P,U2,6*%
X127900000Y-94075000D03*
%TO.P,U2,5*%
X127900000Y-91535000D03*
%TO.P,U2,4*%
X127900000Y-88995000D03*
%TO.P,U2,3*%
%TO.N,Net-(D1-A)*%
X127900000Y-86455000D03*
%TO.P,U2,2*%
%TO.N,Net-(R3-Pad2)*%
X127900000Y-83915000D03*
D13*
%TO.P,U2,1*%
%TO.N,Net-(D2-A)*%
X127900000Y-81375000D03*
%TD*%
D15*
%TO.P,D2,2,A*%
%TO.N,Net-(D2-A)*%
X106710000Y-74600000D03*
D16*
%TO.P,D2,1,K*%
%TO.N,Net-(D2-K)*%
X109250000Y-74600000D03*
%TD*%
%TO.P,D1,1,K*%
%TO.N,Net-(D1-K)*%
X134250000Y-74600000D03*
D15*
%TO.P,D1,2,A*%
%TO.N,Net-(D1-A)*%
X131710000Y-74600000D03*
%TD*%
D14*
%TO.P,U1,14*%
%TO.N,N/C*%
X113060000Y-81300000D03*
%TO.P,U1,13*%
X113060000Y-83840000D03*
%TO.P,U1,12*%
X113060000Y-86380000D03*
%TO.P,U1,11*%
X113060000Y-88920000D03*
%TO.P,U1,10*%
X113060000Y-91460000D03*
%TO.P,U1,9*%
X113060000Y-94000000D03*
%TO.P,U1,8*%
X113060000Y-96540000D03*
%TO.P,U1,7*%
X102900000Y-96540000D03*
%TO.P,U1,6*%
X102900000Y-94000000D03*
%TO.P,U1,5*%
X102900000Y-91460000D03*
%TO.P,U1,4*%
X102900000Y-88920000D03*
%TO.P,U1,3*%
%TO.N,Net-(D2-A)*%
X102900000Y-86380000D03*
%TO.P,U1,2*%
%TO.N,Net-(D1-A)*%
X102900000Y-83840000D03*
D13*
%TO.P,U1,1*%
%TO.N,Net-(R4-Pad1)*%
X102900000Y-81300000D03*
%TD*%
D17*
%TO.N,Net-(D1-A)*%
X125000000Y-80000000D03*
X125000000Y-83000000D03*
%TO.N,Net-(D2-A)*%
X101000000Y-85000000D03*
X101000000Y-80000000D03*
%TO.N,Net-(R3-Pad2)*%
X126000000Y-85000000D03*
X126000000Y-88000000D03*
%TD*%
D18*
%TO.N,Net-(D2-K)*%
X107100000Y-66900000D02*
X107100000Y-64925000D01*
X107000000Y-67000000D02*
X107100000Y-66900000D01*
X108000000Y-68000000D02*
X107000000Y-67000000D01*
X111000000Y-68000000D02*
X108000000Y-68000000D01*
X112000000Y-69000000D02*
X111000000Y-68000000D01*
X112000000Y-74000000D02*
X112000000Y-69000000D01*
X111400000Y-74600000D02*
X112000000Y-74000000D01*
X109250000Y-74600000D02*
X111400000Y-74600000D01*
%TO.N,Net-(D1-K)*%
X133000000Y-68000000D02*
X132000000Y-67000000D01*
X132000000Y-67000000D02*
X132000000Y-64925000D01*
X136000000Y-68000000D02*
X133000000Y-68000000D01*
X137000000Y-74000000D02*
X137000000Y-69000000D01*
X137000000Y-69000000D02*
X136000000Y-68000000D01*
X136400000Y-74600000D02*
X137000000Y-74000000D01*
X134250000Y-74600000D02*
X136400000Y-74600000D01*
%TO.N,Net-(D1-A)*%
X125000000Y-75000000D02*
X125400000Y-74600000D01*
X125000000Y-80000000D02*
X125000000Y-75000000D01*
X125400000Y-74600000D02*
X131710000Y-74600000D01*
X125000000Y-86000000D02*
X125000000Y-83000000D01*
X125455000Y-86455000D02*
X125000000Y-86000000D01*
X127900000Y-86455000D02*
X125455000Y-86455000D01*
%TO.N,Net-(D2-A)*%
X101400000Y-74600000D02*
X106710000Y-74600000D01*
X101000000Y-75000000D02*
X101400000Y-74600000D01*
X101000000Y-80000000D02*
X101000000Y-75000000D01*
X101000000Y-86000000D02*
X101000000Y-85000000D01*
X101380000Y-86380000D02*
X101000000Y-86000000D01*
X102900000Y-86380000D02*
X101380000Y-86380000D01*
X101620000Y-86380000D02*
X102900000Y-86380000D01*
X101000000Y-87000000D02*
X101620000Y-86380000D01*
X101000000Y-99000000D02*
X101000000Y-87000000D01*
X102000000Y-100000000D02*
X101000000Y-99000000D01*
X123000000Y-100000000D02*
X102000000Y-100000000D01*
X124000000Y-82000000D02*
X124000000Y-99000000D01*
X124625000Y-81375000D02*
X124000000Y-82000000D01*
X127900000Y-81375000D02*
X124625000Y-81375000D01*
X124000000Y-99000000D02*
X123000000Y-100000000D01*
%TO.N,Net-(D1-A)*%
X125545000Y-86455000D02*
X127900000Y-86455000D01*
X124000000Y-101000000D02*
X125000000Y-100000000D01*
X101000000Y-101000000D02*
X124000000Y-101000000D01*
X100000000Y-100000000D02*
X101000000Y-101000000D01*
X125000000Y-100000000D02*
X125000000Y-87000000D01*
X100000000Y-84500000D02*
X100000000Y-100000000D01*
X125000000Y-87000000D02*
X125545000Y-86455000D01*
X100660000Y-83840000D02*
X100000000Y-84500000D01*
X102900000Y-83840000D02*
X100660000Y-83840000D01*
%TO.N,Net-(R3-Pad2)*%
X127000000Y-103000000D02*
X136000000Y-103000000D01*
X136000000Y-103000000D02*
X136820000Y-103820000D01*
X126000000Y-102000000D02*
X127000000Y-103000000D01*
X136820000Y-103820000D02*
X136820000Y-108200000D01*
X126000000Y-88000000D02*
X126000000Y-102000000D01*
X127085000Y-83915000D02*
X127900000Y-83915000D01*
X126000000Y-85000000D02*
X127085000Y-83915000D01*
X136820000Y-108200000D02*
X136820000Y-106180000D01*
X136820000Y-106180000D02*
X138000000Y-105000000D01*
X142000000Y-106000000D02*
X142000000Y-107925000D01*
X138000000Y-105000000D02*
X141000000Y-105000000D01*
X141000000Y-105000000D02*
X142000000Y-106000000D01*
%TO.N,Net-(R4-Pad1)*%
X99000000Y-101000000D02*
X99000000Y-82000000D01*
X100000000Y-102000000D02*
X99000000Y-101000000D01*
X99700000Y-81300000D02*
X102900000Y-81300000D01*
X111000000Y-102000000D02*
X100000000Y-102000000D01*
X99000000Y-82000000D02*
X99700000Y-81300000D01*
X111820000Y-102820000D02*
X111000000Y-102000000D01*
X111820000Y-108200000D02*
X111820000Y-102820000D01*
X99900000Y-106100000D02*
X99900000Y-107925000D01*
X111000000Y-105000000D02*
X101000000Y-105000000D01*
X101000000Y-105000000D02*
X99900000Y-106100000D01*
X111820000Y-105820000D02*
X111000000Y-105000000D01*
X111820000Y-108200000D02*
X111820000Y-105820000D01*
%TD*%
%TA.AperFunction,Conductor*%
%TO.N,GND*%
G36*
X156943039Y-55019685D02*
G01*
X156988794Y-55072489D01*
X157000000Y-55124000D01*
X157000000Y-124876000D01*
X156980315Y-124943039D01*
X156927511Y-124988794D01*
X156876000Y-125000000D01*
X83124000Y-125000000D01*
X83056961Y-124980315D01*
X83011206Y-124927511D01*
X83000000Y-124876000D01*
X83000000Y-120000000D01*
X86794958Y-120000000D01*
X86815110Y-120358846D01*
X86815112Y-120358858D01*
X86875314Y-120713185D01*
X86875316Y-120713194D01*
X86974812Y-121058552D01*
X87112353Y-121390609D01*
X87112355Y-121390613D01*
X87286215Y-121705189D01*
X87286218Y-121705194D01*
X87494193Y-121998306D01*
X87566843Y-122079601D01*
X88781100Y-120865344D01*
X88842423Y-120831859D01*
X88912115Y-120836843D01*
X88956871Y-120868440D01*
X88958062Y-120867250D01*
X89132750Y-121041939D01*
X89131382Y-121043306D01*
X89165374Y-121094375D01*
X89166496Y-121164236D01*
X89134654Y-121218898D01*
X87920396Y-122433155D01*
X88001693Y-122505806D01*
X88294805Y-122713781D01*
X88294810Y-122713784D01*
X88609386Y-122887644D01*
X88609390Y-122887646D01*
X88941447Y-123025187D01*
X89286805Y-123124683D01*
X89286814Y-123124685D01*
X89641141Y-123184887D01*
X89641153Y-123184889D01*
X89999999Y-123205041D01*
X90358846Y-123184889D01*
X90358858Y-123184887D01*
X90713185Y-123124685D01*
X90713194Y-123124683D01*
X91058552Y-123025187D01*
X91390609Y-122887646D01*
X91390613Y-122887644D01*
X91705189Y-122713784D01*
X91705194Y-122713781D01*
X91998306Y-122505806D01*
X92079601Y-122433155D01*
X90865345Y-121218899D01*
X90831860Y-121157576D01*
X90836844Y-121087884D01*
X90868447Y-121043136D01*
X90867250Y-121041939D01*
X91041939Y-120867250D01*
X91043311Y-120868622D01*
X91094345Y-120834635D01*
X91164205Y-120833494D01*
X91218898Y-120865345D01*
X92433155Y-122079601D01*
X92505806Y-121998306D01*
X92713781Y-121705194D01*
X92713784Y-121705189D01*
X92887644Y-121390613D01*
X92887646Y-121390609D01*
X93025187Y-121058552D01*
X93124683Y-120713194D01*
X93124685Y-120713185D01*
X93184887Y-120358858D01*
X93184889Y-120358846D01*
X93205041Y-120000000D01*
X93205041Y-119999999D01*
X146794958Y-119999999D01*
X146815110Y-120358846D01*
X146815112Y-120358858D01*
X146875314Y-120713185D01*
X146875316Y-120713194D01*
X146974812Y-121058552D01*
X147112353Y-121390609D01*
X147112355Y-121390613D01*
X147286215Y-121705189D01*
X147286218Y-121705194D01*
X147494193Y-121998306D01*
X147566843Y-122079601D01*
X148781100Y-120865344D01*
X148842423Y-120831859D01*
X148912115Y-120836843D01*
X148956871Y-120868440D01*
X148958062Y-120867250D01*
X149132750Y-121041939D01*
X149131382Y-121043306D01*
X149165374Y-121094375D01*
X149166496Y-121164236D01*
X149134654Y-121218898D01*
X147920396Y-122433155D01*
X148001693Y-122505806D01*
X148294805Y-122713781D01*
X148294810Y-122713784D01*
X148609386Y-122887644D01*
X148609390Y-122887646D01*
X148941447Y-123025187D01*
X149286805Y-123124683D01*
X149286814Y-123124685D01*
X149641141Y-123184887D01*
X149641153Y-123184889D01*
X150000000Y-123205041D01*
X150358846Y-123184889D01*
X150358858Y-123184887D01*
X150713185Y-123124685D01*
X150713194Y-123124683D01*
X151058552Y-123025187D01*
X151390609Y-122887646D01*
X151390613Y-122887644D01*
X151705189Y-122713784D01*
X151705194Y-122713781D01*
X151998306Y-122505806D01*
X152079601Y-122433155D01*
X150865345Y-121218899D01*
X150831860Y-121157576D01*
X150836844Y-121087884D01*
X150868447Y-121043136D01*
X150867250Y-121041939D01*
X151041939Y-120867250D01*
X151043311Y-120868622D01*
X151094345Y-120834635D01*
X151164205Y-120833494D01*
X151218898Y-120865345D01*
X152433155Y-122079601D01*
X152505806Y-121998306D01*
X152713781Y-121705194D01*
X152713784Y-121705189D01*
X152887644Y-121390613D01*
X152887646Y-121390609D01*
X153025187Y-121058552D01*
X153124683Y-120713194D01*
X153124685Y-120713185D01*
X153184887Y-120358858D01*
X153184889Y-120358846D01*
X153205041Y-119999999D01*
X153184889Y-119641153D01*
X153184887Y-119641141D01*
X153124685Y-119286814D01*
X153124683Y-119286805D01*
X153025187Y-118941447D01*
X152887646Y-118609390D01*
X152887644Y-118609386D01*
X152713784Y-118294810D01*
X152713781Y-118294805D01*
X152505806Y-118001693D01*
X152433155Y-117920397D01*
X151218898Y-119134654D01*
X151157575Y-119168139D01*
X151087883Y-119163155D01*
X151043137Y-119131551D01*
X151041939Y-119132750D01*
X150867250Y-118958062D01*
X150868610Y-118956701D01*
X150834609Y-118905574D01*
X150833515Y-118835713D01*
X150865344Y-118781100D01*
X152079601Y-117566843D01*
X151998306Y-117494193D01*
X151705194Y-117286218D01*
X151705189Y-117286215D01*
X151390613Y-117112355D01*
X151390609Y-117112353D01*
X151058552Y-116974812D01*
X150713194Y-116875316D01*
X150713185Y-116875314D01*
X150358858Y-116815112D01*
X150358846Y-116815110D01*
X150000000Y-116794958D01*
X149641153Y-116815110D01*
X149641141Y-116815112D01*
X149286814Y-116875314D01*
X149286805Y-116875316D01*
X148941447Y-116974812D01*
X148609390Y-117112353D01*
X148609386Y-117112355D01*
X148294810Y-117286215D01*
X148294805Y-117286218D01*
X148001693Y-117494194D01*
X148001685Y-117494199D01*
X147920397Y-117566842D01*
X147920397Y-117566843D01*
X149134655Y-118781101D01*
X149168140Y-118842424D01*
X149163156Y-118912116D01*
X149131558Y-118956870D01*
X149132750Y-118958062D01*
X148958062Y-119132750D01*
X148956704Y-119131392D01*
X148905551Y-119165396D01*
X148835689Y-119166476D01*
X148781101Y-119134654D01*
X147566843Y-117920396D01*
X147566842Y-117920397D01*
X147494199Y-118001685D01*
X147494194Y-118001693D01*
X147286218Y-118294805D01*
X147286215Y-118294810D01*
X147112355Y-118609386D01*
X147112353Y-118609390D01*
X146974812Y-118941447D01*
X146875316Y-119286805D01*
X146875314Y-119286814D01*
X146815112Y-119641141D01*
X146815110Y-119641153D01*
X146794958Y-119999999D01*
X93205041Y-119999999D01*
X93184889Y-119641153D01*
X93184887Y-119641141D01*
X93124685Y-119286814D01*
X93124683Y-119286805D01*
X93025187Y-118941447D01*
X92887646Y-118609390D01*
X92887644Y-118609386D01*
X92713784Y-118294810D01*
X92713781Y-118294805D01*
X92505806Y-118001693D01*
X92433155Y-117920397D01*
X91218898Y-119134654D01*
X91157575Y-119168139D01*
X91087883Y-119163155D01*
X91043137Y-119131551D01*
X91041939Y-119132750D01*
X90867250Y-118958062D01*
X90868610Y-118956701D01*
X90834609Y-118905574D01*
X90833515Y-118835713D01*
X90865344Y-118781100D01*
X92079601Y-117566843D01*
X91998306Y-117494193D01*
X91705194Y-117286218D01*
X91705189Y-117286215D01*
X91390613Y-117112355D01*
X91390609Y-117112353D01*
X91058552Y-116974812D01*
X90713194Y-116875316D01*
X90713185Y-116875314D01*
X90358858Y-116815112D01*
X90358846Y-116815110D01*
X89999999Y-116794958D01*
X89641153Y-116815110D01*
X89641141Y-116815112D01*
X89286814Y-116875314D01*
X89286805Y-116875316D01*
X88941447Y-116974812D01*
X88609390Y-117112353D01*
X88609386Y-117112355D01*
X88294810Y-117286215D01*
X88294805Y-117286218D01*
X88001693Y-117494194D01*
X88001685Y-117494199D01*
X87920397Y-117566842D01*
X87920397Y-117566843D01*
X89134655Y-118781101D01*
X89168140Y-118842424D01*
X89163156Y-118912116D01*
X89131558Y-118956870D01*
X89132750Y-118958062D01*
X88958062Y-119132750D01*
X88956704Y-119131392D01*
X88905551Y-119165396D01*
X88835689Y-119166476D01*
X88781101Y-119134654D01*
X87566843Y-117920396D01*
X87566842Y-117920397D01*
X87494199Y-118001685D01*
X87494194Y-118001693D01*
X87286218Y-118294805D01*
X87286215Y-118294810D01*
X87112355Y-118609386D01*
X87112353Y-118609390D01*
X86974812Y-118941447D01*
X86875316Y-119286805D01*
X86875314Y-119286814D01*
X86815112Y-119641141D01*
X86815110Y-119641153D01*
X86794958Y-120000000D01*
X83000000Y-120000000D01*
X83000000Y-115820001D01*
X102894532Y-115820001D01*
X102914364Y-116046686D01*
X102914366Y-116046697D01*
X102973258Y-116266488D01*
X102973261Y-116266497D01*
X103069431Y-116472732D01*
X103069432Y-116472734D01*
X103199954Y-116659141D01*
X103360858Y-116820045D01*
X103360861Y-116820047D01*
X103547266Y-116950568D01*
X103753504Y-117046739D01*
X103973308Y-117105635D01*
X104135230Y-117119801D01*
X104199998Y-117125468D01*
X104200000Y-117125468D01*
X104200002Y-117125468D01*
X104256673Y-117120509D01*
X104426692Y-117105635D01*
X104646496Y-117046739D01*
X104852734Y-116950568D01*
X105039139Y-116820047D01*
X105200047Y-116659139D01*
X105330568Y-116472734D01*
X105426739Y-116266496D01*
X105485635Y-116046692D01*
X105505468Y-115820000D01*
X105485635Y-115593308D01*
X105426739Y-115373504D01*
X105330568Y-115167266D01*
X105200047Y-114980861D01*
X105200045Y-114980858D01*
X105039141Y-114819954D01*
X104852734Y-114689432D01*
X104852728Y-114689429D01*
X104794725Y-114662382D01*
X104742285Y-114616210D01*
X104723133Y-114549017D01*
X104743348Y-114482135D01*
X104794725Y-114437618D01*
X104852734Y-114410568D01*
X105039139Y-114280047D01*
X105200047Y-114119139D01*
X105330568Y-113932734D01*
X105426739Y-113726496D01*
X105485635Y-113506692D01*
X105505468Y-113280000D01*
X105485635Y-113053308D01*
X105426739Y-112833504D01*
X105330568Y-112627266D01*
X105200047Y-112440861D01*
X105200045Y-112440858D01*
X105039141Y-112279954D01*
X104852734Y-112149432D01*
X104852728Y-112149429D01*
X104794725Y-112122382D01*
X104742285Y-112076210D01*
X104723133Y-112009017D01*
X104743348Y-111942135D01*
X104794725Y-111897618D01*
X104852734Y-111870568D01*
X105039139Y-111740047D01*
X105200047Y-111579139D01*
X105330568Y-111392734D01*
X105426739Y-111186496D01*
X105485635Y-110966692D01*
X105505468Y-110740000D01*
X105485635Y-110513308D01*
X105426739Y-110293504D01*
X105330568Y-110087266D01*
X105200047Y-109900861D01*
X105200045Y-109900858D01*
X105039143Y-109739956D01*
X105014536Y-109722726D01*
X104970912Y-109668149D01*
X104963719Y-109598650D01*
X104995241Y-109536296D01*
X105055471Y-109500882D01*
X105072404Y-109497861D01*
X105107483Y-109494091D01*
X105242331Y-109443796D01*
X105357546Y-109357546D01*
X105443796Y-109242331D01*
X105494091Y-109107483D01*
X105500500Y-109047873D01*
X105500499Y-107352128D01*
X105494091Y-107292517D01*
X105493366Y-107290574D01*
X105443797Y-107157671D01*
X105443793Y-107157664D01*
X105357547Y-107042455D01*
X105357544Y-107042452D01*
X105242335Y-106956206D01*
X105242328Y-106956202D01*
X105107482Y-106905908D01*
X105107483Y-106905908D01*
X105047883Y-106899501D01*
X105047881Y-106899500D01*
X105047873Y-106899500D01*
X105047864Y-106899500D01*
X103352129Y-106899500D01*
X103352123Y-106899501D01*
X103292516Y-106905908D01*
X103157671Y-106956202D01*
X103157664Y-106956206D01*
X103042455Y-107042452D01*
X103042452Y-107042455D01*
X102956206Y-107157664D01*
X102956202Y-107157671D01*
X102905908Y-107292517D01*
X102900299Y-107344691D01*
X102899501Y-107352123D01*
X102899500Y-107352135D01*
X102899500Y-109047870D01*
X102899501Y-109047876D01*
X102905908Y-109107483D01*
X102956202Y-109242328D01*
X102956206Y-109242335D01*
X103042452Y-109357544D01*
X103042455Y-109357547D01*
X103157664Y-109443793D01*
X103157671Y-109443797D01*
X103202618Y-109460560D01*
X103292517Y-109494091D01*
X103327596Y-109497862D01*
X103392144Y-109524599D01*
X103431993Y-109581991D01*
X103434488Y-109651816D01*
X103398836Y-109711905D01*
X103385464Y-109722725D01*
X103360858Y-109739954D01*
X103199954Y-109900858D01*
X103069432Y-110087265D01*
X103069431Y-110087267D01*
X102973261Y-110293502D01*
X102973258Y-110293511D01*
X102914366Y-110513302D01*
X102914364Y-110513313D01*
X102894532Y-110739998D01*
X102894532Y-110740001D01*
X102914364Y-110966686D01*
X102914366Y-110966697D01*
X102973258Y-111186488D01*
X102973261Y-111186497D01*
X103069431Y-111392732D01*
X103069432Y-111392734D01*
X103199954Y-111579141D01*
X103360858Y-111740045D01*
X103360861Y-111740047D01*
X103547266Y-111870568D01*
X103605275Y-111897618D01*
X103657714Y-111943791D01*
X103676866Y-112010984D01*
X103656650Y-112077865D01*
X103605275Y-112122382D01*
X103547267Y-112149431D01*
X103547265Y-112149432D01*
X103360858Y-112279954D01*
X103199954Y-112440858D01*
X103069432Y-112627265D01*
X103069431Y-112627267D01*
X102973261Y-112833502D01*
X102973258Y-112833511D01*
X102914366Y-113053302D01*
X102914364Y-113053313D01*
X102894532Y-113279998D01*
X102894532Y-113280001D01*
X102914364Y-113506686D01*
X102914366Y-113506697D01*
X102973258Y-113726488D01*
X102973261Y-113726497D01*
X103069431Y-113932732D01*
X103069432Y-113932734D01*
X103199954Y-114119141D01*
X103360858Y-114280045D01*
X103360861Y-114280047D01*
X103547266Y-114410568D01*
X103605275Y-114437618D01*
X103657714Y-114483791D01*
X103676866Y-114550984D01*
X103656650Y-114617865D01*
X103605275Y-114662382D01*
X103547267Y-114689431D01*
X103547265Y-114689432D01*
X103360858Y-114819954D01*
X103199954Y-114980858D01*
X103069432Y-115167265D01*
X103069431Y-115167267D01*
X102973261Y-115373502D01*
X102973258Y-115373511D01*
X102914366Y-115593302D01*
X102914364Y-115593313D01*
X102894532Y-115819998D01*
X102894532Y-115820001D01*
X83000000Y-115820001D01*
X83000000Y-108175000D01*
X93643505Y-108175000D01*
X93696239Y-108360349D01*
X93795368Y-108559425D01*
X93929391Y-108736900D01*
X94093738Y-108886721D01*
X94282820Y-109003797D01*
X94282822Y-109003798D01*
X94490195Y-109084135D01*
X94570000Y-109099052D01*
X94570000Y-108382898D01*
X94589685Y-108315859D01*
X94642489Y-108270104D01*
X94711647Y-108260160D01*
X94734259Y-108265615D01*
X94761595Y-108275000D01*
X94849004Y-108275000D01*
X94849005Y-108275000D01*
X94925590Y-108262220D01*
X94994955Y-108270602D01*
X95048777Y-108315155D01*
X95069968Y-108381733D01*
X95070000Y-108384529D01*
X95070000Y-109099052D01*
X95149804Y-109084135D01*
X95357177Y-109003798D01*
X95357179Y-109003797D01*
X95546261Y-108886721D01*
X95710608Y-108736900D01*
X95844631Y-108559425D01*
X95943760Y-108360349D01*
X95996495Y-108175000D01*
X95282047Y-108175000D01*
X95215008Y-108155315D01*
X95169253Y-108102511D01*
X95159309Y-108033353D01*
X95161842Y-108020557D01*
X95163979Y-108012114D01*
X95163982Y-108012108D01*
X95173628Y-107895698D01*
X95156849Y-107829438D01*
X95159475Y-107759619D01*
X95199431Y-107702302D01*
X95264032Y-107675686D01*
X95277055Y-107675000D01*
X95996495Y-107675000D01*
X95943760Y-107489650D01*
X95844631Y-107290574D01*
X95710608Y-107113099D01*
X95546261Y-106963278D01*
X95357179Y-106846202D01*
X95357177Y-106846201D01*
X95149799Y-106765864D01*
X95070000Y-106750946D01*
X95070000Y-107467101D01*
X95050315Y-107534140D01*
X94997511Y-107579895D01*
X94928353Y-107589839D01*
X94905738Y-107584383D01*
X94878406Y-107575000D01*
X94878405Y-107575000D01*
X94790995Y-107575000D01*
X94790994Y-107575000D01*
X94714408Y-107587779D01*
X94645043Y-107579396D01*
X94591222Y-107534843D01*
X94570031Y-107468264D01*
X94570000Y-107465470D01*
X94569999Y-106750946D01*
X94490200Y-106765864D01*
X94282822Y-106846201D01*
X94282820Y-106846202D01*
X94093738Y-106963278D01*
X93929391Y-107113099D01*
X93795368Y-107290574D01*
X93696239Y-107489650D01*
X93643505Y-107675000D01*
X94357953Y-107675000D01*
X94424992Y-107694685D01*
X94470747Y-107747489D01*
X94480691Y-107816647D01*
X94478158Y-107829443D01*
X94476017Y-107837896D01*
X94466371Y-107954299D01*
X94466371Y-107954302D01*
X94466372Y-107954302D01*
X94481010Y-108012108D01*
X94483151Y-108020560D01*
X94480525Y-108090381D01*
X94440569Y-108147698D01*
X94375968Y-108174314D01*
X94362945Y-108175000D01*
X93643505Y-108175000D01*
X83000000Y-108175000D01*
X83000000Y-81980197D01*
X98369839Y-81980197D01*
X98374224Y-82026585D01*
X98374499Y-82032421D01*
X98374500Y-100917255D01*
X98372775Y-100932872D01*
X98373061Y-100932899D01*
X98372326Y-100940665D01*
X98374500Y-101009814D01*
X98374500Y-101039343D01*
X98374501Y-101039360D01*
X98375368Y-101046231D01*
X98375826Y-101052050D01*
X98377290Y-101098624D01*
X98377291Y-101098627D01*
X98382880Y-101117867D01*
X98386824Y-101136911D01*
X98389336Y-101156791D01*
X98406490Y-101200119D01*
X98408382Y-101205647D01*
X98421381Y-101250388D01*
X98431580Y-101267634D01*
X98440138Y-101285103D01*
X98447514Y-101303732D01*
X98474898Y-101341423D01*
X98478106Y-101346307D01*
X98501827Y-101386416D01*
X98501833Y-101386424D01*
X98515990Y-101400580D01*
X98528628Y-101415376D01*
X98540405Y-101431586D01*
X98540406Y-101431587D01*
X98576309Y-101461288D01*
X98580620Y-101465210D01*
X99046355Y-101930945D01*
X99499194Y-102383784D01*
X99509019Y-102396048D01*
X99509240Y-102395866D01*
X99514210Y-102401873D01*
X99514213Y-102401876D01*
X99514214Y-102401877D01*
X99564651Y-102449241D01*
X99585530Y-102470120D01*
X99591004Y-102474366D01*
X99595442Y-102478156D01*
X99629418Y-102510062D01*
X99640707Y-102516268D01*
X99646973Y-102519713D01*
X99663231Y-102530392D01*
X99679064Y-102542674D01*
X99697781Y-102550773D01*
X99721837Y-102561183D01*
X99727081Y-102563752D01*
X99767908Y-102586197D01*
X99787312Y-102591179D01*
X99805710Y-102597478D01*
X99824105Y-102605438D01*
X99870129Y-102612726D01*
X99875832Y-102613907D01*
X99920981Y-102625500D01*
X99941016Y-102625500D01*
X99960413Y-102627026D01*
X99980196Y-102630160D01*
X100026583Y-102625775D01*
X100032422Y-102625500D01*
X110689548Y-102625500D01*
X110756587Y-102645185D01*
X110777229Y-102661819D01*
X111158181Y-103042771D01*
X111191666Y-103104094D01*
X111194500Y-103130452D01*
X111194500Y-104250500D01*
X111174815Y-104317539D01*
X111122011Y-104363294D01*
X111070500Y-104374500D01*
X111058984Y-104374500D01*
X111039586Y-104372973D01*
X111032162Y-104371797D01*
X111019805Y-104369840D01*
X111019804Y-104369840D01*
X110973416Y-104374225D01*
X110967578Y-104374500D01*
X101082743Y-104374500D01*
X101067122Y-104372775D01*
X101067096Y-104373061D01*
X101059334Y-104372327D01*
X101059333Y-104372327D01*
X100990186Y-104374500D01*
X100960649Y-104374500D01*
X100953766Y-104375369D01*
X100947949Y-104375826D01*
X100901373Y-104377290D01*
X100882129Y-104382881D01*
X100863079Y-104386825D01*
X100843211Y-104389334D01*
X100799884Y-104406488D01*
X100794358Y-104408379D01*
X100749614Y-104421379D01*
X100749610Y-104421381D01*
X100732366Y-104431579D01*
X100714905Y-104440133D01*
X100696274Y-104447510D01*
X100696262Y-104447517D01*
X100658570Y-104474902D01*
X100653687Y-104478109D01*
X100613580Y-104501829D01*
X100599414Y-104515995D01*
X100584624Y-104528627D01*
X100568414Y-104540404D01*
X100568411Y-104540407D01*
X100538710Y-104576309D01*
X100534777Y-104580631D01*
X99516208Y-105599199D01*
X99503951Y-105609020D01*
X99504134Y-105609241D01*
X99498123Y-105614213D01*
X99450772Y-105664636D01*
X99429889Y-105685519D01*
X99429877Y-105685532D01*
X99425621Y-105691017D01*
X99421837Y-105695447D01*
X99389937Y-105729418D01*
X99389936Y-105729420D01*
X99380284Y-105746976D01*
X99369610Y-105763226D01*
X99357329Y-105779061D01*
X99357324Y-105779068D01*
X99338815Y-105821838D01*
X99336245Y-105827084D01*
X99313803Y-105867906D01*
X99308822Y-105887307D01*
X99302521Y-105905710D01*
X99294562Y-105924102D01*
X99294561Y-105924105D01*
X99287271Y-105970127D01*
X99286087Y-105975846D01*
X99274501Y-106020972D01*
X99274500Y-106020982D01*
X99274500Y-106041016D01*
X99272973Y-106060415D01*
X99269840Y-106080194D01*
X99269840Y-106080195D01*
X99274225Y-106126583D01*
X99274500Y-106132421D01*
X99274500Y-106831233D01*
X99254815Y-106898272D01*
X99215778Y-106936660D01*
X99173436Y-106962877D01*
X99009020Y-107112761D01*
X98874943Y-107290308D01*
X98874938Y-107290316D01*
X98775775Y-107489461D01*
X98775769Y-107489476D01*
X98714885Y-107703462D01*
X98714884Y-107703464D01*
X98694357Y-107924999D01*
X98694357Y-107925000D01*
X98714884Y-108146535D01*
X98714885Y-108146537D01*
X98775769Y-108360523D01*
X98775775Y-108360538D01*
X98874938Y-108559683D01*
X98874943Y-108559691D01*
X99009020Y-108737238D01*
X99173437Y-108887123D01*
X99173439Y-108887125D01*
X99362595Y-109004245D01*
X99362596Y-109004245D01*
X99362599Y-109004247D01*
X99570060Y-109084618D01*
X99788757Y-109125500D01*
X99788759Y-109125500D01*
X100011241Y-109125500D01*
X100011243Y-109125500D01*
X100229940Y-109084618D01*
X100437401Y-109004247D01*
X100626562Y-108887124D01*
X100790981Y-108737236D01*
X100925058Y-108559689D01*
X101024229Y-108360528D01*
X101085115Y-108146536D01*
X101105643Y-107925000D01*
X101096788Y-107829443D01*
X101085115Y-107703464D01*
X101085114Y-107703462D01*
X101080694Y-107687928D01*
X101024229Y-107489472D01*
X101013669Y-107468264D01*
X100925061Y-107290316D01*
X100925056Y-107290308D01*
X100790979Y-107112761D01*
X100626563Y-106962877D01*
X100626562Y-106962876D01*
X100584222Y-106936660D01*
X100537587Y-106884631D01*
X100525500Y-106831233D01*
X100525500Y-106410452D01*
X100545185Y-106343413D01*
X100561819Y-106322771D01*
X101222772Y-105661819D01*
X101284095Y-105628334D01*
X101310453Y-105625500D01*
X110689548Y-105625500D01*
X110756587Y-105645185D01*
X110777229Y-105661819D01*
X111158181Y-106042771D01*
X111191666Y-106104094D01*
X111194500Y-106130452D01*
X111194500Y-106985811D01*
X111174815Y-107052850D01*
X111141623Y-107087386D01*
X110980859Y-107199953D01*
X110819954Y-107360858D01*
X110689432Y-107547265D01*
X110689431Y-107547267D01*
X110593261Y-107753502D01*
X110593258Y-107753511D01*
X110534366Y-107973302D01*
X110534364Y-107973313D01*
X110514532Y-108199998D01*
X110514532Y-108200001D01*
X110534364Y-108426686D01*
X110534366Y-108426697D01*
X110593258Y-108646488D01*
X110593261Y-108646497D01*
X110689431Y-108852732D01*
X110689432Y-108852734D01*
X110819954Y-109039141D01*
X110980858Y-109200045D01*
X110980861Y-109200047D01*
X111167266Y-109330568D01*
X111225275Y-109357618D01*
X111277714Y-109403791D01*
X111296866Y-109470984D01*
X111276650Y-109537865D01*
X111225275Y-109582382D01*
X111167267Y-109609431D01*
X111167265Y-109609432D01*
X110980858Y-109739954D01*
X110819954Y-109900858D01*
X110689432Y-110087265D01*
X110689431Y-110087267D01*
X110593261Y-110293502D01*
X110593258Y-110293511D01*
X110534366Y-110513302D01*
X110534364Y-110513313D01*
X110514532Y-110739998D01*
X110514532Y-110740001D01*
X110534364Y-110966686D01*
X110534366Y-110966697D01*
X110593258Y-111186488D01*
X110593261Y-111186497D01*
X110689431Y-111392732D01*
X110689432Y-111392734D01*
X110819954Y-111579141D01*
X110980858Y-111740045D01*
X110980861Y-111740047D01*
X111167266Y-111870568D01*
X111225275Y-111897618D01*
X111277714Y-111943791D01*
X111296866Y-112010984D01*
X111276650Y-112077865D01*
X111225275Y-112122382D01*
X111167267Y-112149431D01*
X111167265Y-112149432D01*
X110980858Y-112279954D01*
X110819954Y-112440858D01*
X110689432Y-112627265D01*
X110689431Y-112627267D01*
X110593261Y-112833502D01*
X110593258Y-112833511D01*
X110534366Y-113053302D01*
X110534364Y-113053313D01*
X110514532Y-113279998D01*
X110514532Y-113280001D01*
X110534364Y-113506686D01*
X110534366Y-113506697D01*
X110593258Y-113726488D01*
X110593261Y-113726497D01*
X110689431Y-113932732D01*
X110689432Y-113932734D01*
X110819954Y-114119141D01*
X110980858Y-114280045D01*
X110980861Y-114280047D01*
X111167266Y-114410568D01*
X111225275Y-114437618D01*
X111277714Y-114483791D01*
X111296866Y-114550984D01*
X111276650Y-114617865D01*
X111225275Y-114662382D01*
X111167267Y-114689431D01*
X111167265Y-114689432D01*
X110980858Y-114819954D01*
X110819954Y-114980858D01*
X110689432Y-115167265D01*
X110689431Y-115167267D01*
X110593261Y-115373502D01*
X110593258Y-115373511D01*
X110534366Y-115593302D01*
X110534364Y-115593313D01*
X110514532Y-115819998D01*
X110514532Y-115820001D01*
X110534364Y-116046686D01*
X110534366Y-116046697D01*
X110593258Y-116266488D01*
X110593261Y-116266497D01*
X110689431Y-116472732D01*
X110689432Y-116472734D01*
X110819954Y-116659141D01*
X110980858Y-116820045D01*
X110980861Y-116820047D01*
X111167266Y-116950568D01*
X111373504Y-117046739D01*
X111593308Y-117105635D01*
X111755230Y-117119801D01*
X111819998Y-117125468D01*
X111820000Y-117125468D01*
X111820002Y-117125468D01*
X111876672Y-117120509D01*
X112046692Y-117105635D01*
X112266496Y-117046739D01*
X112472734Y-116950568D01*
X112659139Y-116820047D01*
X112820047Y-116659139D01*
X112950568Y-116472734D01*
X113046739Y-116266496D01*
X113105635Y-116046692D01*
X113125468Y-115820001D01*
X127894532Y-115820001D01*
X127914364Y-116046686D01*
X127914366Y-116046697D01*
X127973258Y-116266488D01*
X127973261Y-116266497D01*
X128069431Y-116472732D01*
X128069432Y-116472734D01*
X128199954Y-116659141D01*
X128360858Y-116820045D01*
X128360861Y-116820047D01*
X128547266Y-116950568D01*
X128753504Y-117046739D01*
X128973308Y-117105635D01*
X129135230Y-117119801D01*
X129199998Y-117125468D01*
X129200000Y-117125468D01*
X129200002Y-117125468D01*
X129256673Y-117120509D01*
X129426692Y-117105635D01*
X129646496Y-117046739D01*
X129852734Y-116950568D01*
X130039139Y-116820047D01*
X130200047Y-116659139D01*
X130330568Y-116472734D01*
X130426739Y-116266496D01*
X130485635Y-116046692D01*
X130505468Y-115820000D01*
X130485635Y-115593308D01*
X130426739Y-115373504D01*
X130330568Y-115167266D01*
X130200047Y-114980861D01*
X130200045Y-114980858D01*
X130039141Y-114819954D01*
X129852734Y-114689432D01*
X129852728Y-114689429D01*
X129794725Y-114662382D01*
X129742285Y-114616210D01*
X129723133Y-114549017D01*
X129743348Y-114482135D01*
X129794725Y-114437618D01*
X129852734Y-114410568D01*
X130039139Y-114280047D01*
X130200047Y-114119139D01*
X130330568Y-113932734D01*
X130426739Y-113726496D01*
X130485635Y-113506692D01*
X130505468Y-113280000D01*
X130485635Y-113053308D01*
X130426739Y-112833504D01*
X130330568Y-112627266D01*
X130200047Y-112440861D01*
X130200045Y-112440858D01*
X130039141Y-112279954D01*
X129852734Y-112149432D01*
X129852728Y-112149429D01*
X129794725Y-112122382D01*
X129742285Y-112076210D01*
X129723133Y-112009017D01*
X129743348Y-111942135D01*
X129794725Y-111897618D01*
X129852734Y-111870568D01*
X130039139Y-111740047D01*
X130200047Y-111579139D01*
X130330568Y-111392734D01*
X130426739Y-111186496D01*
X130485635Y-110966692D01*
X130505468Y-110740000D01*
X130485635Y-110513308D01*
X130426739Y-110293504D01*
X130330568Y-110087266D01*
X130200047Y-109900861D01*
X130200045Y-109900858D01*
X130039143Y-109739956D01*
X130014536Y-109722726D01*
X129970912Y-109668149D01*
X129963719Y-109598650D01*
X129995241Y-109536296D01*
X130055471Y-109500882D01*
X130072404Y-109497861D01*
X130107483Y-109494091D01*
X130242331Y-109443796D01*
X130357546Y-109357546D01*
X130443796Y-109242331D01*
X130494091Y-109107483D01*
X130500500Y-109047873D01*
X130500499Y-107352128D01*
X130494091Y-107292517D01*
X130493366Y-107290574D01*
X130443797Y-107157671D01*
X130443793Y-107157664D01*
X130357547Y-107042455D01*
X130357544Y-107042452D01*
X130242335Y-106956206D01*
X130242328Y-106956202D01*
X130107482Y-106905908D01*
X130107483Y-106905908D01*
X130047883Y-106899501D01*
X130047881Y-106899500D01*
X130047873Y-106899500D01*
X130047864Y-106899500D01*
X128352129Y-106899500D01*
X128352123Y-106899501D01*
X128292516Y-106905908D01*
X128157671Y-106956202D01*
X128157664Y-106956206D01*
X128042455Y-107042452D01*
X128042452Y-107042455D01*
X127956206Y-107157664D01*
X127956202Y-107157671D01*
X127905908Y-107292517D01*
X127900299Y-107344691D01*
X127899501Y-107352123D01*
X127899500Y-107352135D01*
X127899500Y-109047870D01*
X127899501Y-109047876D01*
X127905908Y-109107483D01*
X127956202Y-109242328D01*
X127956206Y-109242335D01*
X128042452Y-109357544D01*
X128042455Y-109357547D01*
X128157664Y-109443793D01*
X128157671Y-109443797D01*
X128202618Y-109460560D01*
X128292517Y-109494091D01*
X128327596Y-109497862D01*
X128392144Y-109524599D01*
X128431993Y-109581991D01*
X128434488Y-109651816D01*
X128398836Y-109711905D01*
X128385464Y-109722725D01*
X128360858Y-109739954D01*
X128199954Y-109900858D01*
X128069432Y-110087265D01*
X128069431Y-110087267D01*
X127973261Y-110293502D01*
X127973258Y-110293511D01*
X127914366Y-110513302D01*
X127914364Y-110513313D01*
X127894532Y-110739998D01*
X127894532Y-110740001D01*
X127914364Y-110966686D01*
X127914366Y-110966697D01*
X127973258Y-111186488D01*
X127973261Y-111186497D01*
X128069431Y-111392732D01*
X128069432Y-111392734D01*
X128199954Y-111579141D01*
X128360858Y-111740045D01*
X128360861Y-111740047D01*
X128547266Y-111870568D01*
X128605275Y-111897618D01*
X128657714Y-111943791D01*
X128676866Y-112010984D01*
X128656650Y-112077865D01*
X128605275Y-112122382D01*
X128547267Y-112149431D01*
X128547265Y-112149432D01*
X128360858Y-112279954D01*
X128199954Y-112440858D01*
X128069432Y-112627265D01*
X128069431Y-112627267D01*
X127973261Y-112833502D01*
X127973258Y-112833511D01*
X127914366Y-113053302D01*
X127914364Y-113053313D01*
X127894532Y-113279998D01*
X127894532Y-113280001D01*
X127914364Y-113506686D01*
X127914366Y-113506697D01*
X127973258Y-113726488D01*
X127973261Y-113726497D01*
X128069431Y-113932732D01*
X128069432Y-113932734D01*
X128199954Y-114119141D01*
X128360858Y-114280045D01*
X128360861Y-114280047D01*
X128547266Y-114410568D01*
X128605275Y-114437618D01*
X128657714Y-114483791D01*
X128676866Y-114550984D01*
X128656650Y-114617865D01*
X128605275Y-114662382D01*
X128547267Y-114689431D01*
X128547265Y-114689432D01*
X128360858Y-114819954D01*
X128199954Y-114980858D01*
X128069432Y-115167265D01*
X128069431Y-115167267D01*
X127973261Y-115373502D01*
X127973258Y-115373511D01*
X127914366Y-115593302D01*
X127914364Y-115593313D01*
X127894532Y-115819998D01*
X127894532Y-115820001D01*
X113125468Y-115820001D01*
X113125468Y-115820000D01*
X113105635Y-115593308D01*
X113046739Y-115373504D01*
X112950568Y-115167266D01*
X112820047Y-114980861D01*
X112820045Y-114980858D01*
X112659141Y-114819954D01*
X112472734Y-114689432D01*
X112472728Y-114689429D01*
X112414725Y-114662382D01*
X112362285Y-114616210D01*
X112343133Y-114549017D01*
X112363348Y-114482135D01*
X112414725Y-114437618D01*
X112472734Y-114410568D01*
X112659139Y-114280047D01*
X112820047Y-114119139D01*
X112950568Y-113932734D01*
X113046739Y-113726496D01*
X113105635Y-113506692D01*
X113125468Y-113280000D01*
X113105635Y-113053308D01*
X113046739Y-112833504D01*
X112950568Y-112627266D01*
X112820047Y-112440861D01*
X112820045Y-112440858D01*
X112659141Y-112279954D01*
X112472734Y-112149432D01*
X112472728Y-112149429D01*
X112414725Y-112122382D01*
X112362285Y-112076210D01*
X112343133Y-112009017D01*
X112363348Y-111942135D01*
X112414725Y-111897618D01*
X112472734Y-111870568D01*
X112659139Y-111740047D01*
X112820047Y-111579139D01*
X112950568Y-111392734D01*
X113046739Y-111186496D01*
X113105635Y-110966692D01*
X113125468Y-110740000D01*
X113105635Y-110513308D01*
X113046739Y-110293504D01*
X112950568Y-110087266D01*
X112820047Y-109900861D01*
X112820045Y-109900858D01*
X112659141Y-109739954D01*
X112472734Y-109609432D01*
X112472728Y-109609429D01*
X112414725Y-109582382D01*
X112362285Y-109536210D01*
X112343133Y-109469017D01*
X112363348Y-109402135D01*
X112414725Y-109357618D01*
X112472734Y-109330568D01*
X112659139Y-109200047D01*
X112820047Y-109039139D01*
X112950568Y-108852734D01*
X113046739Y-108646496D01*
X113105635Y-108426692D01*
X113125468Y-108200000D01*
X113120939Y-108148239D01*
X113118338Y-108118499D01*
X113105635Y-107973308D01*
X113053427Y-107778464D01*
X113046741Y-107753511D01*
X113046738Y-107753502D01*
X113014642Y-107684673D01*
X112950568Y-107547266D01*
X112820047Y-107360861D01*
X112820045Y-107360858D01*
X112659140Y-107199953D01*
X112498377Y-107087386D01*
X112454752Y-107032809D01*
X112445500Y-106985811D01*
X112445500Y-105902738D01*
X112447224Y-105887124D01*
X112446938Y-105887097D01*
X112447672Y-105879334D01*
X112447465Y-105872761D01*
X112445500Y-105810203D01*
X112445500Y-102902738D01*
X112447224Y-102887124D01*
X112446938Y-102887097D01*
X112447672Y-102879334D01*
X112445500Y-102810203D01*
X112445500Y-102780651D01*
X112445500Y-102780650D01*
X112444629Y-102773759D01*
X112444172Y-102767945D01*
X112442709Y-102721372D01*
X112437122Y-102702144D01*
X112433174Y-102683084D01*
X112430664Y-102663208D01*
X112413507Y-102619875D01*
X112411619Y-102614359D01*
X112398619Y-102569612D01*
X112388418Y-102552363D01*
X112379860Y-102534894D01*
X112372486Y-102516268D01*
X112372483Y-102516264D01*
X112372483Y-102516263D01*
X112345098Y-102478571D01*
X112341890Y-102473687D01*
X112318172Y-102433582D01*
X112318163Y-102433571D01*
X112304005Y-102419413D01*
X112291370Y-102404620D01*
X112279593Y-102388412D01*
X112243693Y-102358713D01*
X112239381Y-102354790D01*
X111721772Y-101837181D01*
X111688287Y-101775858D01*
X111693271Y-101706166D01*
X111735143Y-101650233D01*
X111800607Y-101625816D01*
X111809453Y-101625500D01*
X123917257Y-101625500D01*
X123932877Y-101627224D01*
X123932904Y-101626939D01*
X123940660Y-101627671D01*
X123940667Y-101627673D01*
X124009814Y-101625500D01*
X124039350Y-101625500D01*
X124046228Y-101624630D01*
X124052041Y-101624172D01*
X124098627Y-101622709D01*
X124117869Y-101617117D01*
X124136912Y-101613174D01*
X124156792Y-101610664D01*
X124200122Y-101593507D01*
X124205646Y-101591617D01*
X124209396Y-101590527D01*
X124250390Y-101578618D01*
X124267629Y-101568422D01*
X124285103Y-101559862D01*
X124303727Y-101552488D01*
X124303727Y-101552487D01*
X124303732Y-101552486D01*
X124341449Y-101525082D01*
X124346305Y-101521892D01*
X124386420Y-101498170D01*
X124400589Y-101483999D01*
X124415379Y-101471368D01*
X124431587Y-101459594D01*
X124461299Y-101423676D01*
X124465212Y-101419376D01*
X125162820Y-100721769D01*
X125224142Y-100688285D01*
X125293834Y-100693269D01*
X125349767Y-100735141D01*
X125374184Y-100800605D01*
X125374500Y-100809451D01*
X125374500Y-101917255D01*
X125372775Y-101932872D01*
X125373061Y-101932899D01*
X125372326Y-101940665D01*
X125374500Y-102009814D01*
X125374500Y-102039343D01*
X125374501Y-102039360D01*
X125375368Y-102046231D01*
X125375826Y-102052050D01*
X125377290Y-102098624D01*
X125377291Y-102098627D01*
X125382880Y-102117867D01*
X125386824Y-102136911D01*
X125389336Y-102156791D01*
X125406490Y-102200119D01*
X125408382Y-102205647D01*
X125421381Y-102250388D01*
X125431580Y-102267634D01*
X125440136Y-102285100D01*
X125447514Y-102303732D01*
X125472542Y-102338181D01*
X125474898Y-102341423D01*
X125478106Y-102346307D01*
X125501827Y-102386416D01*
X125501833Y-102386424D01*
X125515990Y-102400580D01*
X125528628Y-102415376D01*
X125540405Y-102431586D01*
X125540406Y-102431587D01*
X125576309Y-102461288D01*
X125580620Y-102465210D01*
X126158181Y-103042771D01*
X126499194Y-103383784D01*
X126509019Y-103396048D01*
X126509240Y-103395866D01*
X126514210Y-103401873D01*
X126514213Y-103401876D01*
X126514214Y-103401877D01*
X126564651Y-103449241D01*
X126585530Y-103470120D01*
X126591004Y-103474366D01*
X126595442Y-103478156D01*
X126629418Y-103510062D01*
X126640707Y-103516268D01*
X126646973Y-103519713D01*
X126663231Y-103530392D01*
X126679064Y-103542674D01*
X126701015Y-103552172D01*
X126721837Y-103561183D01*
X126727081Y-103563752D01*
X126767908Y-103586197D01*
X126787312Y-103591179D01*
X126805710Y-103597478D01*
X126824105Y-103605438D01*
X126870129Y-103612726D01*
X126875832Y-103613907D01*
X126920981Y-103625500D01*
X126941016Y-103625500D01*
X126960413Y-103627026D01*
X126980196Y-103630160D01*
X127026583Y-103625775D01*
X127032422Y-103625500D01*
X135689548Y-103625500D01*
X135756587Y-103645185D01*
X135777229Y-103661819D01*
X136158181Y-104042771D01*
X136191666Y-104104094D01*
X136194500Y-104130452D01*
X136194500Y-106121016D01*
X136192973Y-106140415D01*
X136189840Y-106160194D01*
X136189840Y-106160195D01*
X136194225Y-106206583D01*
X136194500Y-106212421D01*
X136194500Y-106985811D01*
X136174815Y-107052850D01*
X136141623Y-107087386D01*
X135980859Y-107199953D01*
X135819954Y-107360858D01*
X135689432Y-107547265D01*
X135689431Y-107547267D01*
X135593261Y-107753502D01*
X135593258Y-107753511D01*
X135534366Y-107973302D01*
X135534364Y-107973313D01*
X135514532Y-108199998D01*
X135514532Y-108200001D01*
X135534364Y-108426686D01*
X135534366Y-108426697D01*
X135593258Y-108646488D01*
X135593261Y-108646497D01*
X135689431Y-108852732D01*
X135689432Y-108852734D01*
X135819954Y-109039141D01*
X135980858Y-109200045D01*
X135980861Y-109200047D01*
X136167266Y-109330568D01*
X136225275Y-109357618D01*
X136277714Y-109403791D01*
X136296866Y-109470984D01*
X136276650Y-109537865D01*
X136225275Y-109582382D01*
X136167267Y-109609431D01*
X136167265Y-109609432D01*
X135980858Y-109739954D01*
X135819954Y-109900858D01*
X135689432Y-110087265D01*
X135689431Y-110087267D01*
X135593261Y-110293502D01*
X135593258Y-110293511D01*
X135534366Y-110513302D01*
X135534364Y-110513313D01*
X135514532Y-110739998D01*
X135514532Y-110740001D01*
X135534364Y-110966686D01*
X135534366Y-110966697D01*
X135593258Y-111186488D01*
X135593261Y-111186497D01*
X135689431Y-111392732D01*
X135689432Y-111392734D01*
X135819954Y-111579141D01*
X135980858Y-111740045D01*
X135980861Y-111740047D01*
X136167266Y-111870568D01*
X136225275Y-111897618D01*
X136277714Y-111943791D01*
X136296866Y-112010984D01*
X136276650Y-112077865D01*
X136225275Y-112122382D01*
X136167267Y-112149431D01*
X136167265Y-112149432D01*
X135980858Y-112279954D01*
X135819954Y-112440858D01*
X135689432Y-112627265D01*
X135689431Y-112627267D01*
X135593261Y-112833502D01*
X135593258Y-112833511D01*
X135534366Y-113053302D01*
X135534364Y-113053313D01*
X135514532Y-113279998D01*
X135514532Y-113280001D01*
X135534364Y-113506686D01*
X135534366Y-113506697D01*
X135593258Y-113726488D01*
X135593261Y-113726497D01*
X135689431Y-113932732D01*
X135689432Y-113932734D01*
X135819954Y-114119141D01*
X135980858Y-114280045D01*
X135980861Y-114280047D01*
X136167266Y-114410568D01*
X136225275Y-114437618D01*
X136277714Y-114483791D01*
X136296866Y-114550984D01*
X136276650Y-114617865D01*
X136225275Y-114662382D01*
X136167267Y-114689431D01*
X136167265Y-114689432D01*
X135980858Y-114819954D01*
X135819954Y-114980858D01*
X135689432Y-115167265D01*
X135689431Y-115167267D01*
X135593261Y-115373502D01*
X135593258Y-115373511D01*
X135534366Y-115593302D01*
X135534364Y-115593313D01*
X135514532Y-115819998D01*
X135514532Y-115820001D01*
X135534364Y-116046686D01*
X135534366Y-116046697D01*
X135593258Y-116266488D01*
X135593261Y-116266497D01*
X135689431Y-116472732D01*
X135689432Y-116472734D01*
X135819954Y-116659141D01*
X135980858Y-116820045D01*
X135980861Y-116820047D01*
X136167266Y-116950568D01*
X136373504Y-117046739D01*
X136593308Y-117105635D01*
X136755230Y-117119801D01*
X136819998Y-117125468D01*
X136820000Y-117125468D01*
X136820002Y-117125468D01*
X136876673Y-117120509D01*
X137046692Y-117105635D01*
X137266496Y-117046739D01*
X137472734Y-116950568D01*
X137659139Y-116820047D01*
X137820047Y-116659139D01*
X137950568Y-116472734D01*
X138046739Y-116266496D01*
X138105635Y-116046692D01*
X138125468Y-115820000D01*
X138105635Y-115593308D01*
X138046739Y-115373504D01*
X137950568Y-115167266D01*
X137820047Y-114980861D01*
X137820045Y-114980858D01*
X137659141Y-114819954D01*
X137472734Y-114689432D01*
X137472728Y-114689429D01*
X137414725Y-114662382D01*
X137362285Y-114616210D01*
X137343133Y-114549017D01*
X137363348Y-114482135D01*
X137414725Y-114437618D01*
X137472734Y-114410568D01*
X137659139Y-114280047D01*
X137820047Y-114119139D01*
X137950568Y-113932734D01*
X138046739Y-113726496D01*
X138105635Y-113506692D01*
X138125468Y-113280000D01*
X138105635Y-113053308D01*
X138046739Y-112833504D01*
X137950568Y-112627266D01*
X137820047Y-112440861D01*
X137820045Y-112440858D01*
X137659141Y-112279954D01*
X137472734Y-112149432D01*
X137472728Y-112149429D01*
X137414725Y-112122382D01*
X137362285Y-112076210D01*
X137343133Y-112009017D01*
X137363348Y-111942135D01*
X137414725Y-111897618D01*
X137472734Y-111870568D01*
X137659139Y-111740047D01*
X137820047Y-111579139D01*
X137950568Y-111392734D01*
X138046739Y-111186496D01*
X138105635Y-110966692D01*
X138125468Y-110740000D01*
X138105635Y-110513308D01*
X138046739Y-110293504D01*
X137950568Y-110087266D01*
X137820047Y-109900861D01*
X137820045Y-109900858D01*
X137659141Y-109739954D01*
X137472734Y-109609432D01*
X137472728Y-109609429D01*
X137414725Y-109582382D01*
X137362285Y-109536210D01*
X137343133Y-109469017D01*
X137363348Y-109402135D01*
X137414725Y-109357618D01*
X137472734Y-109330568D01*
X137659139Y-109200047D01*
X137820047Y-109039139D01*
X137950568Y-108852734D01*
X138046739Y-108646496D01*
X138105635Y-108426692D01*
X138125468Y-108200000D01*
X138120939Y-108148239D01*
X138118338Y-108118499D01*
X138105635Y-107973308D01*
X138053427Y-107778464D01*
X138046741Y-107753511D01*
X138046738Y-107753502D01*
X138014642Y-107684673D01*
X137950568Y-107547266D01*
X137820047Y-107360861D01*
X137820045Y-107360858D01*
X137659140Y-107199953D01*
X137498377Y-107087386D01*
X137454752Y-107032809D01*
X137445500Y-106985811D01*
X137445500Y-106490452D01*
X137465185Y-106423413D01*
X137481819Y-106402771D01*
X138222772Y-105661819D01*
X138284095Y-105628334D01*
X138310453Y-105625500D01*
X140689548Y-105625500D01*
X140756587Y-105645185D01*
X140777229Y-105661819D01*
X141338181Y-106222771D01*
X141371666Y-106284094D01*
X141374500Y-106310452D01*
X141374500Y-106906233D01*
X141354815Y-106973272D01*
X141315778Y-107011660D01*
X141273436Y-107037877D01*
X141109020Y-107187761D01*
X140974943Y-107365308D01*
X140974938Y-107365316D01*
X140875775Y-107564461D01*
X140875769Y-107564476D01*
X140814885Y-107778462D01*
X140814884Y-107778464D01*
X140794357Y-107999999D01*
X140794357Y-108000000D01*
X140814884Y-108221535D01*
X140814885Y-108221537D01*
X140875769Y-108435523D01*
X140875775Y-108435538D01*
X140974938Y-108634683D01*
X140974943Y-108634691D01*
X141109020Y-108812238D01*
X141273437Y-108962123D01*
X141273439Y-108962125D01*
X141462595Y-109079245D01*
X141462596Y-109079245D01*
X141462599Y-109079247D01*
X141670060Y-109159618D01*
X141888757Y-109200500D01*
X141888759Y-109200500D01*
X142111241Y-109200500D01*
X142111243Y-109200500D01*
X142329940Y-109159618D01*
X142537401Y-109079247D01*
X142726562Y-108962124D01*
X142890981Y-108812236D01*
X143025058Y-108634689D01*
X143124229Y-108435528D01*
X143185115Y-108221536D01*
X143205643Y-108000000D01*
X145874859Y-108000000D01*
X145895378Y-108221439D01*
X145956240Y-108435350D01*
X146055369Y-108634428D01*
X146071137Y-108655308D01*
X146071138Y-108655308D01*
X146579447Y-108147000D01*
X146640770Y-108113515D01*
X146710462Y-108118499D01*
X146766395Y-108160371D01*
X146770933Y-108166854D01*
X146776256Y-108175000D01*
X146806658Y-108221535D01*
X146818936Y-108240327D01*
X146851429Y-108265617D01*
X146918600Y-108317898D01*
X146959413Y-108374609D01*
X146963088Y-108444382D01*
X146930119Y-108503433D01*
X146426672Y-109006879D01*
X146426672Y-109006880D01*
X146542821Y-109078797D01*
X146542822Y-109078798D01*
X146750195Y-109159134D01*
X146968807Y-109200000D01*
X147191193Y-109200000D01*
X147409809Y-109159133D01*
X147617168Y-109078801D01*
X147617181Y-109078795D01*
X147733326Y-109006879D01*
X147226406Y-108499958D01*
X147192921Y-108438635D01*
X147197905Y-108368943D01*
X147239777Y-108313010D01*
X147255062Y-108303227D01*
X147297947Y-108280019D01*
X147377060Y-108194079D01*
X147380555Y-108186110D01*
X147425510Y-108132624D01*
X147492246Y-108111934D01*
X147559574Y-108130608D01*
X147581792Y-108148239D01*
X148088861Y-108655308D01*
X148104631Y-108634425D01*
X148104633Y-108634422D01*
X148203759Y-108435350D01*
X148264621Y-108221439D01*
X148285140Y-108000000D01*
X148285140Y-107999999D01*
X148264621Y-107778560D01*
X148203759Y-107564649D01*
X148104635Y-107365580D01*
X148104630Y-107365572D01*
X148088860Y-107344690D01*
X147580552Y-107852999D01*
X147519229Y-107886484D01*
X147449537Y-107881500D01*
X147393604Y-107839628D01*
X147389062Y-107833139D01*
X147341065Y-107759674D01*
X147341062Y-107759671D01*
X147241399Y-107682100D01*
X147200586Y-107625390D01*
X147196911Y-107555617D01*
X147229880Y-107496566D01*
X147733327Y-106993119D01*
X147617178Y-106921202D01*
X147617177Y-106921201D01*
X147409804Y-106840865D01*
X147191193Y-106800000D01*
X146968807Y-106800000D01*
X146750195Y-106840865D01*
X146542824Y-106921200D01*
X146542823Y-106921201D01*
X146426671Y-106993119D01*
X146933594Y-107500041D01*
X146967079Y-107561364D01*
X146962095Y-107631055D01*
X146920224Y-107686989D01*
X146904931Y-107696776D01*
X146862056Y-107719979D01*
X146862052Y-107719981D01*
X146782939Y-107805922D01*
X146779441Y-107813896D01*
X146734481Y-107867379D01*
X146667744Y-107888065D01*
X146600417Y-107869386D01*
X146578207Y-107851760D01*
X146071138Y-107344691D01*
X146071137Y-107344691D01*
X146055368Y-107365574D01*
X145956240Y-107564649D01*
X145895378Y-107778560D01*
X145874859Y-107999999D01*
X145874859Y-108000000D01*
X143205643Y-108000000D01*
X143185115Y-107778464D01*
X143124229Y-107564472D01*
X143124224Y-107564461D01*
X143025061Y-107365316D01*
X143025056Y-107365308D01*
X142890979Y-107187761D01*
X142726563Y-107037877D01*
X142726562Y-107037876D01*
X142684222Y-107011660D01*
X142637587Y-106959631D01*
X142625500Y-106906233D01*
X142625500Y-106082742D01*
X142627224Y-106067122D01*
X142626939Y-106067095D01*
X142627673Y-106059333D01*
X142625500Y-105990172D01*
X142625500Y-105960656D01*
X142625500Y-105960650D01*
X142624631Y-105953779D01*
X142624173Y-105947952D01*
X142622710Y-105901373D01*
X142617119Y-105882130D01*
X142613173Y-105863078D01*
X142610664Y-105843208D01*
X142593504Y-105799867D01*
X142591624Y-105794379D01*
X142578618Y-105749610D01*
X142577060Y-105746976D01*
X142568423Y-105732371D01*
X142559861Y-105714894D01*
X142552487Y-105696270D01*
X142552486Y-105696268D01*
X142525079Y-105658545D01*
X142521888Y-105653686D01*
X142498172Y-105613583D01*
X142498165Y-105613574D01*
X142484006Y-105599415D01*
X142471368Y-105584619D01*
X142459594Y-105568413D01*
X142423688Y-105538709D01*
X142419376Y-105534786D01*
X141500803Y-104616212D01*
X141490980Y-104603950D01*
X141490759Y-104604134D01*
X141485786Y-104598123D01*
X141467159Y-104580631D01*
X141435364Y-104550773D01*
X141424919Y-104540328D01*
X141414475Y-104529883D01*
X141408986Y-104525625D01*
X141404561Y-104521847D01*
X141370582Y-104489938D01*
X141370580Y-104489936D01*
X141370577Y-104489935D01*
X141353029Y-104480288D01*
X141336763Y-104469604D01*
X141320933Y-104457325D01*
X141278168Y-104438818D01*
X141272922Y-104436248D01*
X141232093Y-104413803D01*
X141232092Y-104413802D01*
X141212693Y-104408822D01*
X141194281Y-104402518D01*
X141175898Y-104394562D01*
X141175892Y-104394560D01*
X141129874Y-104387272D01*
X141124152Y-104386087D01*
X141079021Y-104374500D01*
X141079019Y-104374500D01*
X141058984Y-104374500D01*
X141039586Y-104372973D01*
X141032162Y-104371797D01*
X141019805Y-104369840D01*
X141019804Y-104369840D01*
X140973416Y-104374225D01*
X140967578Y-104374500D01*
X138082743Y-104374500D01*
X138067122Y-104372775D01*
X138067096Y-104373061D01*
X138059334Y-104372327D01*
X138059333Y-104372327D01*
X137990186Y-104374500D01*
X137960649Y-104374500D01*
X137953766Y-104375369D01*
X137947949Y-104375826D01*
X137901373Y-104377290D01*
X137882129Y-104382881D01*
X137863079Y-104386825D01*
X137843211Y-104389334D01*
X137799884Y-104406488D01*
X137794358Y-104408379D01*
X137749614Y-104421379D01*
X137749610Y-104421381D01*
X137732366Y-104431579D01*
X137714905Y-104440133D01*
X137696274Y-104447510D01*
X137696261Y-104447517D01*
X137658569Y-104474902D01*
X137653686Y-104478110D01*
X137632622Y-104490568D01*
X137564898Y-104507751D01*
X137498635Y-104485592D01*
X137454872Y-104431126D01*
X137445500Y-104383836D01*
X137445500Y-103902738D01*
X137447224Y-103887124D01*
X137446938Y-103887097D01*
X137447672Y-103879334D01*
X137445500Y-103810203D01*
X137445500Y-103780651D01*
X137445500Y-103780650D01*
X137444629Y-103773759D01*
X137444172Y-103767945D01*
X137442709Y-103721372D01*
X137437122Y-103702144D01*
X137433174Y-103683084D01*
X137430664Y-103663208D01*
X137413507Y-103619875D01*
X137411619Y-103614359D01*
X137398619Y-103569612D01*
X137388418Y-103552363D01*
X137379860Y-103534894D01*
X137372486Y-103516268D01*
X137372483Y-103516264D01*
X137372483Y-103516263D01*
X137345098Y-103478571D01*
X137341890Y-103473687D01*
X137318172Y-103433582D01*
X137318163Y-103433571D01*
X137304005Y-103419413D01*
X137291370Y-103404620D01*
X137279593Y-103388412D01*
X137243693Y-103358713D01*
X137239381Y-103354790D01*
X136500803Y-102616212D01*
X136490980Y-102603950D01*
X136490759Y-102604134D01*
X136485786Y-102598123D01*
X136449188Y-102563755D01*
X136435364Y-102550773D01*
X136424919Y-102540328D01*
X136414475Y-102529883D01*
X136408986Y-102525625D01*
X136404561Y-102521847D01*
X136370582Y-102489938D01*
X136370580Y-102489936D01*
X136370577Y-102489935D01*
X136353029Y-102480288D01*
X136336763Y-102469604D01*
X136320936Y-102457327D01*
X136320935Y-102457326D01*
X136320933Y-102457325D01*
X136278168Y-102438818D01*
X136272922Y-102436248D01*
X136232093Y-102413803D01*
X136232092Y-102413802D01*
X136212693Y-102408822D01*
X136194281Y-102402518D01*
X136175898Y-102394562D01*
X136175892Y-102394560D01*
X136129874Y-102387272D01*
X136124152Y-102386087D01*
X136079021Y-102374500D01*
X136079019Y-102374500D01*
X136058984Y-102374500D01*
X136039586Y-102372973D01*
X136032162Y-102371797D01*
X136019805Y-102369840D01*
X136019804Y-102369840D01*
X135973416Y-102374225D01*
X135967578Y-102374500D01*
X127310452Y-102374500D01*
X127243413Y-102354815D01*
X127222771Y-102338181D01*
X126983214Y-102098624D01*
X126661816Y-101777225D01*
X126628333Y-101715905D01*
X126625499Y-101689556D01*
X126625499Y-97455454D01*
X126645184Y-97388416D01*
X126697988Y-97342661D01*
X126767146Y-97332717D01*
X126830702Y-97361742D01*
X126851074Y-97384332D01*
X126899954Y-97454141D01*
X127060858Y-97615045D01*
X127060861Y-97615047D01*
X127247266Y-97745568D01*
X127453504Y-97841739D01*
X127673308Y-97900635D01*
X127835230Y-97914801D01*
X127899998Y-97920468D01*
X127900000Y-97920468D01*
X127900002Y-97920468D01*
X127956673Y-97915509D01*
X128126692Y-97900635D01*
X128346496Y-97841739D01*
X128552734Y-97745568D01*
X128739139Y-97615047D01*
X128900047Y-97454139D01*
X129030568Y-97267734D01*
X129126739Y-97061496D01*
X129185635Y-96841692D01*
X129205468Y-96615001D01*
X136754532Y-96615001D01*
X136774364Y-96841686D01*
X136774366Y-96841697D01*
X136833258Y-97061488D01*
X136833261Y-97061497D01*
X136929431Y-97267732D01*
X136929432Y-97267734D01*
X137059954Y-97454141D01*
X137220858Y-97615045D01*
X137220861Y-97615047D01*
X137407266Y-97745568D01*
X137613504Y-97841739D01*
X137833308Y-97900635D01*
X137995230Y-97914801D01*
X138059998Y-97920468D01*
X138060000Y-97920468D01*
X138060002Y-97920468D01*
X138116672Y-97915509D01*
X138286692Y-97900635D01*
X138506496Y-97841739D01*
X138712734Y-97745568D01*
X138899139Y-97615047D01*
X139060047Y-97454139D01*
X139190568Y-97267734D01*
X139286739Y-97061496D01*
X139345635Y-96841692D01*
X139365468Y-96615000D01*
X139345635Y-96388308D01*
X139286739Y-96168504D01*
X139190568Y-95962266D01*
X139060047Y-95775861D01*
X139060045Y-95775858D01*
X138899141Y-95614954D01*
X138712734Y-95484432D01*
X138712728Y-95484429D01*
X138654725Y-95457382D01*
X138602285Y-95411210D01*
X138583133Y-95344017D01*
X138603348Y-95277135D01*
X138654725Y-95232618D01*
X138712734Y-95205568D01*
X138899139Y-95075047D01*
X139060047Y-94914139D01*
X139190568Y-94727734D01*
X139286739Y-94521496D01*
X139345635Y-94301692D01*
X139365468Y-94075000D01*
X139345635Y-93848308D01*
X139286739Y-93628504D01*
X139190568Y-93422266D01*
X139060047Y-93235861D01*
X139060045Y-93235858D01*
X138899141Y-93074954D01*
X138712734Y-92944432D01*
X138712728Y-92944429D01*
X138654725Y-92917382D01*
X138602285Y-92871210D01*
X138583133Y-92804017D01*
X138603348Y-92737135D01*
X138654725Y-92692618D01*
X138712734Y-92665568D01*
X138899139Y-92535047D01*
X139060047Y-92374139D01*
X139190568Y-92187734D01*
X139286739Y-91981496D01*
X139345635Y-91761692D01*
X139365468Y-91535000D01*
X139345635Y-91308308D01*
X139286739Y-91088504D01*
X139190568Y-90882266D01*
X139060047Y-90695861D01*
X139060045Y-90695858D01*
X138899141Y-90534954D01*
X138712734Y-90404432D01*
X138712728Y-90404429D01*
X138654725Y-90377382D01*
X138602285Y-90331210D01*
X138583133Y-90264017D01*
X138603348Y-90197135D01*
X138654725Y-90152618D01*
X138712734Y-90125568D01*
X138899139Y-89995047D01*
X139060047Y-89834139D01*
X139190568Y-89647734D01*
X139286739Y-89441496D01*
X139345635Y-89221692D01*
X139365468Y-88995000D01*
X139345635Y-88768308D01*
X139286739Y-88548504D01*
X139190568Y-88342266D01*
X139060047Y-88155861D01*
X139060045Y-88155858D01*
X138899141Y-87994954D01*
X138712734Y-87864432D01*
X138712728Y-87864429D01*
X138654725Y-87837382D01*
X138602285Y-87791210D01*
X138583133Y-87724017D01*
X138603348Y-87657135D01*
X138654725Y-87612618D01*
X138712734Y-87585568D01*
X138899139Y-87455047D01*
X139060047Y-87294139D01*
X139190568Y-87107734D01*
X139286739Y-86901496D01*
X139345635Y-86681692D01*
X139365468Y-86455000D01*
X139345635Y-86228308D01*
X139286739Y-86008504D01*
X139190568Y-85802266D01*
X139060047Y-85615861D01*
X139060045Y-85615858D01*
X138899141Y-85454954D01*
X138712734Y-85324432D01*
X138712728Y-85324429D01*
X138654725Y-85297382D01*
X138602285Y-85251210D01*
X138583133Y-85184017D01*
X138603348Y-85117135D01*
X138654725Y-85072618D01*
X138712734Y-85045568D01*
X138899139Y-84915047D01*
X139060047Y-84754139D01*
X139190568Y-84567734D01*
X139286739Y-84361496D01*
X139345635Y-84141692D01*
X139365468Y-83915000D01*
X139345635Y-83688308D01*
X139286739Y-83468504D01*
X139190568Y-83262266D01*
X139060047Y-83075861D01*
X139060045Y-83075858D01*
X138899141Y-82914954D01*
X138712734Y-82784432D01*
X138712728Y-82784429D01*
X138654725Y-82757382D01*
X138602285Y-82711210D01*
X138583133Y-82644017D01*
X138603348Y-82577135D01*
X138654725Y-82532618D01*
X138712734Y-82505568D01*
X138899139Y-82375047D01*
X139060047Y-82214139D01*
X139190568Y-82027734D01*
X139286739Y-81821496D01*
X139345635Y-81601692D01*
X139365468Y-81375000D01*
X139345635Y-81148308D01*
X139286739Y-80928504D01*
X139190568Y-80722266D01*
X139060047Y-80535861D01*
X139060045Y-80535858D01*
X138899141Y-80374954D01*
X138712734Y-80244432D01*
X138712732Y-80244431D01*
X138506497Y-80148261D01*
X138506488Y-80148258D01*
X138286697Y-80089366D01*
X138286693Y-80089365D01*
X138286692Y-80089365D01*
X138286691Y-80089364D01*
X138286686Y-80089364D01*
X138060002Y-80069532D01*
X138059998Y-80069532D01*
X137833313Y-80089364D01*
X137833302Y-80089366D01*
X137613511Y-80148258D01*
X137613502Y-80148261D01*
X137407267Y-80244431D01*
X137407265Y-80244432D01*
X137220858Y-80374954D01*
X137059954Y-80535858D01*
X136929432Y-80722265D01*
X136929431Y-80722267D01*
X136833261Y-80928502D01*
X136833258Y-80928511D01*
X136774366Y-81148302D01*
X136774364Y-81148313D01*
X136754532Y-81374998D01*
X136754532Y-81375001D01*
X136774364Y-81601686D01*
X136774366Y-81601697D01*
X136833258Y-81821488D01*
X136833261Y-81821497D01*
X136929431Y-82027732D01*
X136929432Y-82027734D01*
X137059954Y-82214141D01*
X137220858Y-82375045D01*
X137220861Y-82375047D01*
X137407266Y-82505568D01*
X137465275Y-82532618D01*
X137517714Y-82578791D01*
X137536866Y-82645984D01*
X137516650Y-82712865D01*
X137465275Y-82757382D01*
X137407267Y-82784431D01*
X137407265Y-82784432D01*
X137220858Y-82914954D01*
X137059954Y-83075858D01*
X136929432Y-83262265D01*
X136929431Y-83262267D01*
X136833261Y-83468502D01*
X136833258Y-83468511D01*
X136774366Y-83688302D01*
X136774364Y-83688313D01*
X136754532Y-83914998D01*
X136754532Y-83915001D01*
X136774364Y-84141686D01*
X136774366Y-84141697D01*
X136833258Y-84361488D01*
X136833261Y-84361497D01*
X136929431Y-84567732D01*
X136929432Y-84567734D01*
X137059954Y-84754141D01*
X137220858Y-84915045D01*
X137220861Y-84915047D01*
X137407266Y-85045568D01*
X137465275Y-85072618D01*
X137517714Y-85118791D01*
X137536866Y-85185984D01*
X137516650Y-85252865D01*
X137465275Y-85297382D01*
X137407267Y-85324431D01*
X137407265Y-85324432D01*
X137220858Y-85454954D01*
X137059954Y-85615858D01*
X136929432Y-85802265D01*
X136929431Y-85802267D01*
X136833261Y-86008502D01*
X136833258Y-86008511D01*
X136774366Y-86228302D01*
X136774364Y-86228313D01*
X136754532Y-86454998D01*
X136754532Y-86455001D01*
X136774364Y-86681686D01*
X136774366Y-86681697D01*
X136833258Y-86901488D01*
X136833261Y-86901497D01*
X136929431Y-87107732D01*
X136929432Y-87107734D01*
X137059954Y-87294141D01*
X137220858Y-87455045D01*
X137220861Y-87455047D01*
X137407266Y-87585568D01*
X137465275Y-87612618D01*
X137517714Y-87658791D01*
X137536866Y-87725984D01*
X137516650Y-87792865D01*
X137465275Y-87837382D01*
X137407267Y-87864431D01*
X137407265Y-87864432D01*
X137220858Y-87994954D01*
X137059954Y-88155858D01*
X136929432Y-88342265D01*
X136929431Y-88342267D01*
X136833261Y-88548502D01*
X136833258Y-88548511D01*
X136774366Y-88768302D01*
X136774364Y-88768313D01*
X136754532Y-88994998D01*
X136754532Y-88995001D01*
X136774364Y-89221686D01*
X136774366Y-89221697D01*
X136833258Y-89441488D01*
X136833261Y-89441497D01*
X136929431Y-89647732D01*
X136929432Y-89647734D01*
X137059954Y-89834141D01*
X137220858Y-89995045D01*
X137220861Y-89995047D01*
X137407266Y-90125568D01*
X137465275Y-90152618D01*
X137517714Y-90198791D01*
X137536866Y-90265984D01*
X137516650Y-90332865D01*
X137465275Y-90377382D01*
X137407267Y-90404431D01*
X137407265Y-90404432D01*
X137220858Y-90534954D01*
X137059954Y-90695858D01*
X136929432Y-90882265D01*
X136929431Y-90882267D01*
X136833261Y-91088502D01*
X136833258Y-91088511D01*
X136774366Y-91308302D01*
X136774364Y-91308313D01*
X136754532Y-91534998D01*
X136754532Y-91535001D01*
X136774364Y-91761686D01*
X136774366Y-91761697D01*
X136833258Y-91981488D01*
X136833261Y-91981497D01*
X136929431Y-92187732D01*
X136929432Y-92187734D01*
X137059954Y-92374141D01*
X137220858Y-92535045D01*
X137220861Y-92535047D01*
X137407266Y-92665568D01*
X137465275Y-92692618D01*
X137517714Y-92738791D01*
X137536866Y-92805984D01*
X137516650Y-92872865D01*
X137465275Y-92917382D01*
X137407267Y-92944431D01*
X137407265Y-92944432D01*
X137220858Y-93074954D01*
X137059954Y-93235858D01*
X136929432Y-93422265D01*
X136929431Y-93422267D01*
X136833261Y-93628502D01*
X136833258Y-93628511D01*
X136774366Y-93848302D01*
X136774364Y-93848313D01*
X136754532Y-94074998D01*
X136754532Y-94075001D01*
X136774364Y-94301686D01*
X136774366Y-94301697D01*
X136833258Y-94521488D01*
X136833261Y-94521497D01*
X136929431Y-94727732D01*
X136929432Y-94727734D01*
X137059954Y-94914141D01*
X137220858Y-95075045D01*
X137220861Y-95075047D01*
X137407266Y-95205568D01*
X137465275Y-95232618D01*
X137517714Y-95278791D01*
X137536866Y-95345984D01*
X137516650Y-95412865D01*
X137465275Y-95457382D01*
X137407267Y-95484431D01*
X137407265Y-95484432D01*
X137220858Y-95614954D01*
X137059954Y-95775858D01*
X136929432Y-95962265D01*
X136929431Y-95962267D01*
X136833261Y-96168502D01*
X136833258Y-96168511D01*
X136774366Y-96388302D01*
X136774364Y-96388313D01*
X136754532Y-96614998D01*
X136754532Y-96615001D01*
X129205468Y-96615001D01*
X129205468Y-96615000D01*
X129185635Y-96388308D01*
X129126739Y-96168504D01*
X129030568Y-95962266D01*
X128900047Y-95775861D01*
X128900045Y-95775858D01*
X128739141Y-95614954D01*
X128552734Y-95484432D01*
X128552728Y-95484429D01*
X128494725Y-95457382D01*
X128442285Y-95411210D01*
X128423133Y-95344017D01*
X128443348Y-95277135D01*
X128494725Y-95232618D01*
X128552734Y-95205568D01*
X128739139Y-95075047D01*
X128900047Y-94914139D01*
X129030568Y-94727734D01*
X129126739Y-94521496D01*
X129185635Y-94301692D01*
X129205468Y-94075000D01*
X129185635Y-93848308D01*
X129126739Y-93628504D01*
X129030568Y-93422266D01*
X128900047Y-93235861D01*
X128900045Y-93235858D01*
X128739141Y-93074954D01*
X128552734Y-92944432D01*
X128552728Y-92944429D01*
X128494725Y-92917382D01*
X128442285Y-92871210D01*
X128423133Y-92804017D01*
X128443348Y-92737135D01*
X128494725Y-92692618D01*
X128552734Y-92665568D01*
X128739139Y-92535047D01*
X128900047Y-92374139D01*
X129030568Y-92187734D01*
X129126739Y-91981496D01*
X129185635Y-91761692D01*
X129205468Y-91535000D01*
X129185635Y-91308308D01*
X129126739Y-91088504D01*
X129030568Y-90882266D01*
X128900047Y-90695861D01*
X128900045Y-90695858D01*
X128739141Y-90534954D01*
X128552734Y-90404432D01*
X128552728Y-90404429D01*
X128494725Y-90377382D01*
X128442285Y-90331210D01*
X128423133Y-90264017D01*
X128443348Y-90197135D01*
X128494725Y-90152618D01*
X128552734Y-90125568D01*
X128739139Y-89995047D01*
X128900047Y-89834139D01*
X129030568Y-89647734D01*
X129126739Y-89441496D01*
X129185635Y-89221692D01*
X129205468Y-88995000D01*
X129185635Y-88768308D01*
X129126739Y-88548504D01*
X129030568Y-88342266D01*
X128900047Y-88155861D01*
X128900045Y-88155858D01*
X128739141Y-87994954D01*
X128552734Y-87864432D01*
X128552728Y-87864429D01*
X128494725Y-87837382D01*
X128442285Y-87791210D01*
X128423133Y-87724017D01*
X128443348Y-87657135D01*
X128494725Y-87612618D01*
X128552734Y-87585568D01*
X128739139Y-87455047D01*
X128900047Y-87294139D01*
X129030568Y-87107734D01*
X129126739Y-86901496D01*
X129185635Y-86681692D01*
X129205468Y-86455000D01*
X129185635Y-86228308D01*
X129126739Y-86008504D01*
X129030568Y-85802266D01*
X128900047Y-85615861D01*
X128900045Y-85615858D01*
X128739141Y-85454954D01*
X128552734Y-85324432D01*
X128552728Y-85324429D01*
X128494725Y-85297382D01*
X128442285Y-85251210D01*
X128423133Y-85184017D01*
X128443348Y-85117135D01*
X128494725Y-85072618D01*
X128552734Y-85045568D01*
X128739139Y-84915047D01*
X128900047Y-84754139D01*
X129030568Y-84567734D01*
X129126739Y-84361496D01*
X129185635Y-84141692D01*
X129205468Y-83915000D01*
X129185635Y-83688308D01*
X129126739Y-83468504D01*
X129030568Y-83262266D01*
X128900047Y-83075861D01*
X128900045Y-83075858D01*
X128739143Y-82914956D01*
X128714536Y-82897726D01*
X128670912Y-82843149D01*
X128663719Y-82773650D01*
X128695241Y-82711296D01*
X128755471Y-82675882D01*
X128772404Y-82672861D01*
X128807483Y-82669091D01*
X128942331Y-82618796D01*
X129057546Y-82532546D01*
X129143796Y-82417331D01*
X129194091Y-82282483D01*
X129200500Y-82222873D01*
X129200499Y-80527128D01*
X129194091Y-80467517D01*
X129191608Y-80460861D01*
X129143797Y-80332671D01*
X129143793Y-80332664D01*
X129057547Y-80217455D01*
X129057544Y-80217452D01*
X128942335Y-80131206D01*
X128942328Y-80131202D01*
X128807482Y-80080908D01*
X128807483Y-80080908D01*
X128747883Y-80074501D01*
X128747881Y-80074500D01*
X128747873Y-80074500D01*
X128747864Y-80074500D01*
X127052129Y-80074500D01*
X127052123Y-80074501D01*
X126992516Y-80080908D01*
X126857671Y-80131202D01*
X126857664Y-80131206D01*
X126742455Y-80217452D01*
X126742452Y-80217455D01*
X126656206Y-80332664D01*
X126656202Y-80332671D01*
X126605908Y-80467517D01*
X126599501Y-80527116D01*
X126599501Y-80527123D01*
X126599500Y-80527135D01*
X126599500Y-80625500D01*
X126579815Y-80692539D01*
X126527011Y-80738294D01*
X126475500Y-80749500D01*
X125815398Y-80749500D01*
X125748359Y-80729815D01*
X125702604Y-80677011D01*
X125692660Y-80607853D01*
X125721685Y-80544297D01*
X125723248Y-80542528D01*
X125732533Y-80532216D01*
X125827179Y-80368284D01*
X125885674Y-80188256D01*
X125905460Y-80000000D01*
X125885674Y-79811744D01*
X125827179Y-79631716D01*
X125732533Y-79467784D01*
X125657350Y-79384284D01*
X125627120Y-79321292D01*
X125625500Y-79301312D01*
X125625500Y-75349500D01*
X125645185Y-75282461D01*
X125697989Y-75236706D01*
X125749500Y-75225500D01*
X130378649Y-75225500D01*
X130445688Y-75245185D01*
X130482458Y-75281679D01*
X130601016Y-75463147D01*
X130601019Y-75463151D01*
X130601021Y-75463153D01*
X130758216Y-75633913D01*
X130758219Y-75633915D01*
X130758222Y-75633918D01*
X130941365Y-75776464D01*
X130941371Y-75776468D01*
X130941374Y-75776470D01*
X131145497Y-75886936D01*
X131259487Y-75926068D01*
X131365015Y-75962297D01*
X131365017Y-75962297D01*
X131365019Y-75962298D01*
X131593951Y-76000500D01*
X131593952Y-76000500D01*
X131826048Y-76000500D01*
X131826049Y-76000500D01*
X132054981Y-75962298D01*
X132274503Y-75886936D01*
X132478626Y-75776470D01*
X132661784Y-75633913D01*
X132670130Y-75624846D01*
X132730010Y-75588854D01*
X132799849Y-75590949D01*
X132857468Y-75630469D01*
X132877544Y-75665491D01*
X132906203Y-75742330D01*
X132906206Y-75742335D01*
X132992452Y-75857544D01*
X132992455Y-75857547D01*
X133107664Y-75943793D01*
X133107671Y-75943797D01*
X133242517Y-75994091D01*
X133242516Y-75994091D01*
X133249444Y-75994835D01*
X133302127Y-76000500D01*
X135197872Y-76000499D01*
X135257483Y-75994091D01*
X135392331Y-75943796D01*
X135507546Y-75857546D01*
X135593796Y-75742331D01*
X135644091Y-75607483D01*
X135650500Y-75547873D01*
X135650500Y-75349500D01*
X135670185Y-75282461D01*
X135722989Y-75236706D01*
X135774500Y-75225500D01*
X136317257Y-75225500D01*
X136332877Y-75227224D01*
X136332904Y-75226939D01*
X136340660Y-75227671D01*
X136340667Y-75227673D01*
X136409814Y-75225500D01*
X136439350Y-75225500D01*
X136446228Y-75224630D01*
X136452041Y-75224172D01*
X136498627Y-75222709D01*
X136517869Y-75217117D01*
X136536912Y-75213174D01*
X136556792Y-75210664D01*
X136600122Y-75193507D01*
X136605646Y-75191617D01*
X136609396Y-75190527D01*
X136650390Y-75178618D01*
X136667629Y-75168422D01*
X136685103Y-75159862D01*
X136703727Y-75152488D01*
X136703727Y-75152487D01*
X136703732Y-75152486D01*
X136741449Y-75125082D01*
X136746305Y-75121892D01*
X136786420Y-75098170D01*
X136800589Y-75083999D01*
X136815379Y-75071368D01*
X136831587Y-75059594D01*
X136861299Y-75023676D01*
X136865212Y-75019376D01*
X137383787Y-74500802D01*
X137396042Y-74490986D01*
X137395859Y-74490764D01*
X137401866Y-74485792D01*
X137401877Y-74485786D01*
X137432775Y-74452882D01*
X137449227Y-74435364D01*
X137459671Y-74424918D01*
X137470120Y-74414471D01*
X137474379Y-74408978D01*
X137478152Y-74404561D01*
X137510062Y-74370582D01*
X137519713Y-74353024D01*
X137530396Y-74336761D01*
X137542673Y-74320936D01*
X137561185Y-74278153D01*
X137563738Y-74272941D01*
X137586197Y-74232092D01*
X137591180Y-74212680D01*
X137597481Y-74194280D01*
X137605437Y-74175896D01*
X137612729Y-74129852D01*
X137613906Y-74124171D01*
X137625500Y-74079019D01*
X137625500Y-74058982D01*
X137627027Y-74039582D01*
X137627508Y-74036545D01*
X137630160Y-74019804D01*
X137625960Y-73975369D01*
X137625775Y-73973415D01*
X137625500Y-73967577D01*
X137625500Y-69082742D01*
X137627224Y-69067122D01*
X137626939Y-69067095D01*
X137627673Y-69059333D01*
X137625500Y-68990172D01*
X137625500Y-68960656D01*
X137625500Y-68960650D01*
X137624631Y-68953779D01*
X137624173Y-68947952D01*
X137622710Y-68901373D01*
X137617119Y-68882130D01*
X137613173Y-68863078D01*
X137610664Y-68843208D01*
X137593504Y-68799867D01*
X137591624Y-68794379D01*
X137578618Y-68749610D01*
X137568422Y-68732370D01*
X137559861Y-68714894D01*
X137552487Y-68696270D01*
X137552486Y-68696268D01*
X137525079Y-68658545D01*
X137521888Y-68653686D01*
X137498172Y-68613583D01*
X137498165Y-68613574D01*
X137484006Y-68599415D01*
X137471368Y-68584619D01*
X137459594Y-68568413D01*
X137453963Y-68563755D01*
X137423688Y-68538709D01*
X137419376Y-68534786D01*
X136500803Y-67616212D01*
X136490980Y-67603950D01*
X136490759Y-67604134D01*
X136485786Y-67598123D01*
X136435364Y-67550773D01*
X136424919Y-67540328D01*
X136414475Y-67529883D01*
X136408986Y-67525625D01*
X136404561Y-67521847D01*
X136370582Y-67489938D01*
X136370580Y-67489936D01*
X136370577Y-67489935D01*
X136353029Y-67480288D01*
X136336763Y-67469604D01*
X136320936Y-67457327D01*
X136320935Y-67457326D01*
X136320933Y-67457325D01*
X136278168Y-67438818D01*
X136272922Y-67436248D01*
X136232093Y-67413803D01*
X136232092Y-67413802D01*
X136212693Y-67408822D01*
X136194281Y-67402518D01*
X136175898Y-67394562D01*
X136175892Y-67394560D01*
X136129874Y-67387272D01*
X136124152Y-67386087D01*
X136079021Y-67374500D01*
X136079019Y-67374500D01*
X136058984Y-67374500D01*
X136039586Y-67372973D01*
X136032162Y-67371797D01*
X136019805Y-67369840D01*
X136019804Y-67369840D01*
X135973416Y-67374225D01*
X135967578Y-67374500D01*
X133310452Y-67374500D01*
X133243413Y-67354815D01*
X133222771Y-67338181D01*
X132661819Y-66777228D01*
X132628334Y-66715905D01*
X132625500Y-66689547D01*
X132625500Y-66018765D01*
X132645185Y-65951726D01*
X132684220Y-65913340D01*
X132726562Y-65887124D01*
X132890981Y-65737236D01*
X133025058Y-65559689D01*
X133124229Y-65360528D01*
X133177016Y-65175000D01*
X135903505Y-65175000D01*
X135956239Y-65360349D01*
X136055368Y-65559425D01*
X136189391Y-65736900D01*
X136353738Y-65886721D01*
X136542820Y-66003797D01*
X136542822Y-66003798D01*
X136750195Y-66084135D01*
X136830000Y-66099052D01*
X136830000Y-65382898D01*
X136849685Y-65315859D01*
X136902489Y-65270104D01*
X136971647Y-65260160D01*
X136994259Y-65265615D01*
X137021595Y-65275000D01*
X137109004Y-65275000D01*
X137109005Y-65275000D01*
X137185590Y-65262220D01*
X137254955Y-65270602D01*
X137308777Y-65315155D01*
X137329968Y-65381733D01*
X137330000Y-65384529D01*
X137330000Y-66099052D01*
X137409804Y-66084135D01*
X137617177Y-66003798D01*
X137617179Y-66003797D01*
X137806261Y-65886721D01*
X137970608Y-65736900D01*
X138104631Y-65559425D01*
X138203760Y-65360349D01*
X138256495Y-65175000D01*
X137542047Y-65175000D01*
X137475008Y-65155315D01*
X137429253Y-65102511D01*
X137419309Y-65033353D01*
X137421842Y-65020557D01*
X137423979Y-65012114D01*
X137423982Y-65012108D01*
X137433628Y-64895698D01*
X137416849Y-64829438D01*
X137419475Y-64759619D01*
X137459431Y-64702302D01*
X137524032Y-64675686D01*
X137537055Y-64675000D01*
X138256495Y-64675000D01*
X138203760Y-64489650D01*
X138104631Y-64290574D01*
X137970608Y-64113099D01*
X137806261Y-63963278D01*
X137617179Y-63846202D01*
X137617177Y-63846201D01*
X137409799Y-63765864D01*
X137330000Y-63750946D01*
X137330000Y-64467101D01*
X137310315Y-64534140D01*
X137257511Y-64579895D01*
X137188353Y-64589839D01*
X137165738Y-64584383D01*
X137138406Y-64575000D01*
X137138405Y-64575000D01*
X137050995Y-64575000D01*
X137050994Y-64575000D01*
X136974408Y-64587779D01*
X136905043Y-64579396D01*
X136851222Y-64534843D01*
X136830031Y-64468264D01*
X136830000Y-64465470D01*
X136830000Y-63750946D01*
X136750200Y-63765864D01*
X136542822Y-63846201D01*
X136542820Y-63846202D01*
X136353738Y-63963278D01*
X136189391Y-64113099D01*
X136055368Y-64290574D01*
X135956239Y-64489650D01*
X135903505Y-64675000D01*
X136617953Y-64675000D01*
X136684992Y-64694685D01*
X136730747Y-64747489D01*
X136740691Y-64816647D01*
X136738158Y-64829443D01*
X136736017Y-64837896D01*
X136726371Y-64954299D01*
X136726371Y-64954302D01*
X136726372Y-64954302D01*
X136741010Y-65012108D01*
X136743151Y-65020560D01*
X136740525Y-65090381D01*
X136700569Y-65147698D01*
X136635968Y-65174314D01*
X136622945Y-65175000D01*
X135903505Y-65175000D01*
X133177016Y-65175000D01*
X133185115Y-65146536D01*
X133205643Y-64925000D01*
X133196788Y-64829443D01*
X133185115Y-64703464D01*
X133185114Y-64703462D01*
X133152199Y-64587779D01*
X133124229Y-64489472D01*
X133113669Y-64468264D01*
X133025061Y-64290316D01*
X133025056Y-64290308D01*
X132890979Y-64112761D01*
X132726562Y-63962876D01*
X132726560Y-63962874D01*
X132537404Y-63845754D01*
X132537398Y-63845752D01*
X132329940Y-63765382D01*
X132111243Y-63724500D01*
X131888757Y-63724500D01*
X131670060Y-63765382D01*
X131538864Y-63816207D01*
X131462601Y-63845752D01*
X131462595Y-63845754D01*
X131273439Y-63962874D01*
X131273437Y-63962876D01*
X131109020Y-64112761D01*
X130974943Y-64290308D01*
X130974938Y-64290316D01*
X130875775Y-64489461D01*
X130875769Y-64489476D01*
X130814885Y-64703462D01*
X130814884Y-64703464D01*
X130794357Y-64924999D01*
X130794357Y-64925000D01*
X130814884Y-65146535D01*
X130814885Y-65146537D01*
X130875769Y-65360523D01*
X130875775Y-65360538D01*
X130974938Y-65559683D01*
X130974943Y-65559691D01*
X131109020Y-65737238D01*
X131273433Y-65887120D01*
X131273435Y-65887122D01*
X131273437Y-65887123D01*
X131273438Y-65887124D01*
X131315778Y-65913339D01*
X131362412Y-65965364D01*
X131374500Y-66018765D01*
X131374500Y-66917255D01*
X131372775Y-66932872D01*
X131373061Y-66932899D01*
X131372326Y-66940665D01*
X131374500Y-67009814D01*
X131374500Y-67039343D01*
X131374501Y-67039360D01*
X131375368Y-67046231D01*
X131375826Y-67052050D01*
X131377290Y-67098624D01*
X131377291Y-67098627D01*
X131382880Y-67117867D01*
X131386824Y-67136911D01*
X131389336Y-67156792D01*
X131403823Y-67193382D01*
X131406490Y-67200119D01*
X131408382Y-67205647D01*
X131421381Y-67250388D01*
X131431580Y-67267634D01*
X131440136Y-67285100D01*
X131447514Y-67303732D01*
X131472542Y-67338181D01*
X131474898Y-67341423D01*
X131478106Y-67346307D01*
X131501827Y-67386416D01*
X131501833Y-67386424D01*
X131515990Y-67400580D01*
X131528628Y-67415376D01*
X131540405Y-67431586D01*
X131540406Y-67431587D01*
X131576309Y-67461288D01*
X131580620Y-67465210D01*
X132499194Y-68383784D01*
X132509019Y-68396048D01*
X132509240Y-68395866D01*
X132514210Y-68401873D01*
X132514213Y-68401876D01*
X132514214Y-68401877D01*
X132564651Y-68449241D01*
X132585530Y-68470120D01*
X132591004Y-68474366D01*
X132595442Y-68478156D01*
X132629418Y-68510062D01*
X132629422Y-68510064D01*
X132646973Y-68519713D01*
X132663231Y-68530392D01*
X132679064Y-68542674D01*
X132701015Y-68552172D01*
X132721837Y-68561183D01*
X132727081Y-68563752D01*
X132767908Y-68586197D01*
X132787312Y-68591179D01*
X132805710Y-68597478D01*
X132824105Y-68605438D01*
X132870129Y-68612726D01*
X132875832Y-68613907D01*
X132920981Y-68625500D01*
X132941016Y-68625500D01*
X132960413Y-68627026D01*
X132980196Y-68630160D01*
X133026583Y-68625775D01*
X133032422Y-68625500D01*
X135689548Y-68625500D01*
X135756587Y-68645185D01*
X135777229Y-68661819D01*
X136338181Y-69222771D01*
X136371666Y-69284094D01*
X136374500Y-69310452D01*
X136374500Y-73689547D01*
X136354815Y-73756586D01*
X136338181Y-73777228D01*
X136177228Y-73938181D01*
X136115905Y-73971666D01*
X136089547Y-73974500D01*
X135774499Y-73974500D01*
X135707460Y-73954815D01*
X135661705Y-73902011D01*
X135650499Y-73850500D01*
X135650499Y-73652129D01*
X135650498Y-73652123D01*
X135646492Y-73614858D01*
X135644091Y-73592517D01*
X135634233Y-73566087D01*
X135593797Y-73457671D01*
X135593793Y-73457664D01*
X135507547Y-73342455D01*
X135507544Y-73342452D01*
X135392335Y-73256206D01*
X135392328Y-73256202D01*
X135257482Y-73205908D01*
X135257483Y-73205908D01*
X135197883Y-73199501D01*
X135197881Y-73199500D01*
X135197873Y-73199500D01*
X135197864Y-73199500D01*
X133302129Y-73199500D01*
X133302123Y-73199501D01*
X133242516Y-73205908D01*
X133107671Y-73256202D01*
X133107664Y-73256206D01*
X132992455Y-73342452D01*
X132992452Y-73342455D01*
X132906206Y-73457664D01*
X132906203Y-73457670D01*
X132877544Y-73534508D01*
X132835672Y-73590441D01*
X132770208Y-73614858D01*
X132701935Y-73600006D01*
X132670135Y-73575158D01*
X132661784Y-73566087D01*
X132661778Y-73566082D01*
X132661777Y-73566081D01*
X132478634Y-73423535D01*
X132478628Y-73423531D01*
X132274504Y-73313064D01*
X132274495Y-73313061D01*
X132054984Y-73237702D01*
X131864450Y-73205908D01*
X131826049Y-73199500D01*
X131593951Y-73199500D01*
X131555550Y-73205908D01*
X131365015Y-73237702D01*
X131145504Y-73313061D01*
X131145495Y-73313064D01*
X130941371Y-73423531D01*
X130941365Y-73423535D01*
X130758222Y-73566081D01*
X130758219Y-73566084D01*
X130758216Y-73566086D01*
X130758216Y-73566087D01*
X130713319Y-73614858D01*
X130601016Y-73736852D01*
X130482458Y-73918321D01*
X130429311Y-73963678D01*
X130378649Y-73974500D01*
X125482737Y-73974500D01*
X125467120Y-73972776D01*
X125467093Y-73973062D01*
X125459331Y-73972327D01*
X125390203Y-73974500D01*
X125360650Y-73974500D01*
X125359929Y-73974590D01*
X125353757Y-73975369D01*
X125347945Y-73975826D01*
X125301372Y-73977290D01*
X125301369Y-73977291D01*
X125282126Y-73982881D01*
X125263083Y-73986825D01*
X125243204Y-73989336D01*
X125243203Y-73989337D01*
X125199878Y-74006490D01*
X125194352Y-74008382D01*
X125149608Y-74021383D01*
X125149604Y-74021385D01*
X125132365Y-74031580D01*
X125114898Y-74040137D01*
X125096269Y-74047512D01*
X125096267Y-74047513D01*
X125058564Y-74074906D01*
X125053682Y-74078112D01*
X125013580Y-74101828D01*
X124999408Y-74116000D01*
X124984623Y-74128628D01*
X124968412Y-74140407D01*
X124938709Y-74176310D01*
X124934777Y-74180631D01*
X124616208Y-74499199D01*
X124603951Y-74509020D01*
X124604134Y-74509241D01*
X124598123Y-74514213D01*
X124550772Y-74564636D01*
X124529889Y-74585519D01*
X124529877Y-74585532D01*
X124525621Y-74591017D01*
X124521837Y-74595447D01*
X124489937Y-74629418D01*
X124489936Y-74629420D01*
X124480284Y-74646976D01*
X124469610Y-74663226D01*
X124457329Y-74679061D01*
X124457324Y-74679068D01*
X124438815Y-74721838D01*
X124436245Y-74727084D01*
X124413803Y-74767906D01*
X124408822Y-74787307D01*
X124402521Y-74805710D01*
X124394562Y-74824102D01*
X124394561Y-74824105D01*
X124387271Y-74870127D01*
X124386087Y-74875846D01*
X124374501Y-74920972D01*
X124374500Y-74920982D01*
X124374500Y-74941016D01*
X124372973Y-74960415D01*
X124369840Y-74980194D01*
X124369839Y-74980197D01*
X124374224Y-75026585D01*
X124374499Y-75032421D01*
X124374499Y-79301312D01*
X124354814Y-79368351D01*
X124342650Y-79384283D01*
X124267466Y-79467785D01*
X124172821Y-79631715D01*
X124172818Y-79631722D01*
X124114327Y-79811740D01*
X124114326Y-79811744D01*
X124094540Y-80000000D01*
X124114326Y-80188256D01*
X124114327Y-80188259D01*
X124172818Y-80368277D01*
X124172820Y-80368281D01*
X124172821Y-80368284D01*
X124267467Y-80532216D01*
X124351461Y-80625500D01*
X124355435Y-80629914D01*
X124385665Y-80692905D01*
X124377040Y-80762240D01*
X124332299Y-80815906D01*
X124323038Y-80821539D01*
X124321275Y-80822508D01*
X124283564Y-80849906D01*
X124278682Y-80853112D01*
X124238580Y-80876828D01*
X124224408Y-80891000D01*
X124209623Y-80903628D01*
X124193412Y-80915407D01*
X124163709Y-80951310D01*
X124159777Y-80955631D01*
X123616208Y-81499199D01*
X123603951Y-81509020D01*
X123604134Y-81509241D01*
X123598123Y-81514213D01*
X123550772Y-81564636D01*
X123529889Y-81585519D01*
X123529877Y-81585532D01*
X123525621Y-81591017D01*
X123521837Y-81595447D01*
X123489937Y-81629418D01*
X123489936Y-81629420D01*
X123480284Y-81646976D01*
X123469610Y-81663226D01*
X123457329Y-81679061D01*
X123457324Y-81679068D01*
X123438815Y-81721838D01*
X123436245Y-81727084D01*
X123413803Y-81767906D01*
X123408822Y-81787307D01*
X123402521Y-81805710D01*
X123394562Y-81824102D01*
X123394561Y-81824105D01*
X123387271Y-81870127D01*
X123386087Y-81875846D01*
X123374501Y-81920972D01*
X123374500Y-81920982D01*
X123374500Y-81941016D01*
X123372973Y-81960415D01*
X123369840Y-81980194D01*
X123369840Y-81980195D01*
X123374225Y-82026583D01*
X123374500Y-82032421D01*
X123374499Y-98689547D01*
X123354814Y-98756586D01*
X123338180Y-98777228D01*
X122777228Y-99338181D01*
X122715905Y-99371666D01*
X122689547Y-99374500D01*
X102310452Y-99374500D01*
X102243413Y-99354815D01*
X102222771Y-99338181D01*
X101661819Y-98777228D01*
X101628334Y-98715905D01*
X101625500Y-98689547D01*
X101625500Y-97380456D01*
X101645185Y-97313417D01*
X101697989Y-97267662D01*
X101767147Y-97257718D01*
X101830703Y-97286743D01*
X101851073Y-97309331D01*
X101874411Y-97342661D01*
X101899955Y-97379142D01*
X102060858Y-97540045D01*
X102060861Y-97540047D01*
X102247266Y-97670568D01*
X102453504Y-97766739D01*
X102673308Y-97825635D01*
X102835230Y-97839801D01*
X102899998Y-97845468D01*
X102900000Y-97845468D01*
X102900002Y-97845468D01*
X102956673Y-97840509D01*
X103126692Y-97825635D01*
X103346496Y-97766739D01*
X103552734Y-97670568D01*
X103739139Y-97540047D01*
X103900047Y-97379139D01*
X104030568Y-97192734D01*
X104126739Y-96986496D01*
X104185635Y-96766692D01*
X104205468Y-96540001D01*
X111754532Y-96540001D01*
X111774364Y-96766686D01*
X111774366Y-96766697D01*
X111833258Y-96986488D01*
X111833261Y-96986497D01*
X111929431Y-97192732D01*
X111929432Y-97192734D01*
X112059954Y-97379141D01*
X112220858Y-97540045D01*
X112220861Y-97540047D01*
X112407266Y-97670568D01*
X112613504Y-97766739D01*
X112833308Y-97825635D01*
X112995230Y-97839801D01*
X113059998Y-97845468D01*
X113060000Y-97845468D01*
X113060002Y-97845468D01*
X113116673Y-97840509D01*
X113286692Y-97825635D01*
X113506496Y-97766739D01*
X113712734Y-97670568D01*
X113899139Y-97540047D01*
X114060047Y-97379139D01*
X114190568Y-97192734D01*
X114286739Y-96986496D01*
X114345635Y-96766692D01*
X114365468Y-96540000D01*
X114345635Y-96313308D01*
X114286739Y-96093504D01*
X114190568Y-95887266D01*
X114060047Y-95700861D01*
X114060045Y-95700858D01*
X113899141Y-95539954D01*
X113712734Y-95409432D01*
X113712728Y-95409429D01*
X113654725Y-95382382D01*
X113602285Y-95336210D01*
X113583133Y-95269017D01*
X113603348Y-95202135D01*
X113654725Y-95157618D01*
X113712734Y-95130568D01*
X113899139Y-95000047D01*
X114060047Y-94839139D01*
X114190568Y-94652734D01*
X114286739Y-94446496D01*
X114345635Y-94226692D01*
X114365468Y-94000000D01*
X114345635Y-93773308D01*
X114286739Y-93553504D01*
X114190568Y-93347266D01*
X114060047Y-93160861D01*
X114060045Y-93160858D01*
X113899141Y-92999954D01*
X113712734Y-92869432D01*
X113712728Y-92869429D01*
X113654725Y-92842382D01*
X113602285Y-92796210D01*
X113583133Y-92729017D01*
X113603348Y-92662135D01*
X113654725Y-92617618D01*
X113712734Y-92590568D01*
X113899139Y-92460047D01*
X114060047Y-92299139D01*
X114190568Y-92112734D01*
X114286739Y-91906496D01*
X114345635Y-91686692D01*
X114365468Y-91460000D01*
X114345635Y-91233308D01*
X114286739Y-91013504D01*
X114190568Y-90807266D01*
X114060047Y-90620861D01*
X114060045Y-90620858D01*
X113899141Y-90459954D01*
X113712734Y-90329432D01*
X113712728Y-90329429D01*
X113654725Y-90302382D01*
X113602285Y-90256210D01*
X113583133Y-90189017D01*
X113603348Y-90122135D01*
X113654725Y-90077618D01*
X113712734Y-90050568D01*
X113899139Y-89920047D01*
X114060047Y-89759139D01*
X114190568Y-89572734D01*
X114286739Y-89366496D01*
X114345635Y-89146692D01*
X114365468Y-88920000D01*
X114345635Y-88693308D01*
X114286739Y-88473504D01*
X114190568Y-88267266D01*
X114060047Y-88080861D01*
X114060045Y-88080858D01*
X113899141Y-87919954D01*
X113712734Y-87789432D01*
X113712728Y-87789429D01*
X113654725Y-87762382D01*
X113602285Y-87716210D01*
X113583133Y-87649017D01*
X113603348Y-87582135D01*
X113654725Y-87537618D01*
X113712734Y-87510568D01*
X113899139Y-87380047D01*
X114060047Y-87219139D01*
X114190568Y-87032734D01*
X114286739Y-86826496D01*
X114345635Y-86606692D01*
X114365468Y-86380000D01*
X114345635Y-86153308D01*
X114286739Y-85933504D01*
X114190568Y-85727266D01*
X114060047Y-85540861D01*
X114060045Y-85540858D01*
X113899141Y-85379954D01*
X113712734Y-85249432D01*
X113712728Y-85249429D01*
X113654725Y-85222382D01*
X113602285Y-85176210D01*
X113583133Y-85109017D01*
X113603348Y-85042135D01*
X113654725Y-84997618D01*
X113712734Y-84970568D01*
X113899139Y-84840047D01*
X114060047Y-84679139D01*
X114190568Y-84492734D01*
X114286739Y-84286496D01*
X114345635Y-84066692D01*
X114365468Y-83840000D01*
X114345635Y-83613308D01*
X114286739Y-83393504D01*
X114190568Y-83187266D01*
X114060047Y-83000861D01*
X114060045Y-83000858D01*
X113899141Y-82839954D01*
X113712734Y-82709432D01*
X113712728Y-82709429D01*
X113654725Y-82682382D01*
X113602285Y-82636210D01*
X113583133Y-82569017D01*
X113603348Y-82502135D01*
X113654725Y-82457618D01*
X113712734Y-82430568D01*
X113899139Y-82300047D01*
X114060047Y-82139139D01*
X114190568Y-81952734D01*
X114286739Y-81746496D01*
X114345635Y-81526692D01*
X114365468Y-81300000D01*
X114345635Y-81073308D01*
X114286739Y-80853504D01*
X114190568Y-80647266D01*
X114060047Y-80460861D01*
X114060045Y-80460858D01*
X113899141Y-80299954D01*
X113712734Y-80169432D01*
X113712732Y-80169431D01*
X113506497Y-80073261D01*
X113506488Y-80073258D01*
X113286697Y-80014366D01*
X113286693Y-80014365D01*
X113286692Y-80014365D01*
X113286691Y-80014364D01*
X113286686Y-80014364D01*
X113060002Y-79994532D01*
X113059998Y-79994532D01*
X112833313Y-80014364D01*
X112833302Y-80014366D01*
X112613511Y-80073258D01*
X112613502Y-80073261D01*
X112407267Y-80169431D01*
X112407265Y-80169432D01*
X112220858Y-80299954D01*
X112059954Y-80460858D01*
X111929432Y-80647265D01*
X111929431Y-80647267D01*
X111833261Y-80853502D01*
X111833258Y-80853511D01*
X111774366Y-81073302D01*
X111774364Y-81073313D01*
X111754532Y-81299998D01*
X111754532Y-81300001D01*
X111774364Y-81526686D01*
X111774366Y-81526697D01*
X111833258Y-81746488D01*
X111833261Y-81746497D01*
X111929431Y-81952732D01*
X111929432Y-81952734D01*
X112059954Y-82139141D01*
X112220858Y-82300045D01*
X112220861Y-82300047D01*
X112407266Y-82430568D01*
X112465275Y-82457618D01*
X112517714Y-82503791D01*
X112536866Y-82570984D01*
X112516650Y-82637865D01*
X112465275Y-82682382D01*
X112407267Y-82709431D01*
X112407265Y-82709432D01*
X112220858Y-82839954D01*
X112059954Y-83000858D01*
X111929432Y-83187265D01*
X111929431Y-83187267D01*
X111833261Y-83393502D01*
X111833258Y-83393511D01*
X111774366Y-83613302D01*
X111774364Y-83613313D01*
X111754532Y-83839998D01*
X111754532Y-83840001D01*
X111774364Y-84066686D01*
X111774366Y-84066697D01*
X111833258Y-84286488D01*
X111833261Y-84286497D01*
X111929431Y-84492732D01*
X111929432Y-84492734D01*
X112059954Y-84679141D01*
X112220858Y-84840045D01*
X112257689Y-84865834D01*
X112407266Y-84970568D01*
X112465275Y-84997618D01*
X112517714Y-85043791D01*
X112536866Y-85110984D01*
X112516650Y-85177865D01*
X112465275Y-85222382D01*
X112407267Y-85249431D01*
X112407265Y-85249432D01*
X112220858Y-85379954D01*
X112059954Y-85540858D01*
X111929432Y-85727265D01*
X111929431Y-85727267D01*
X111833261Y-85933502D01*
X111833258Y-85933511D01*
X111774366Y-86153302D01*
X111774364Y-86153313D01*
X111754532Y-86379998D01*
X111754532Y-86380001D01*
X111774364Y-86606686D01*
X111774366Y-86606697D01*
X111833258Y-86826488D01*
X111833261Y-86826497D01*
X111929431Y-87032732D01*
X111929432Y-87032734D01*
X112059954Y-87219141D01*
X112220858Y-87380045D01*
X112220861Y-87380047D01*
X112407266Y-87510568D01*
X112465275Y-87537618D01*
X112517714Y-87583791D01*
X112536866Y-87650984D01*
X112516650Y-87717865D01*
X112465275Y-87762382D01*
X112407267Y-87789431D01*
X112407265Y-87789432D01*
X112220858Y-87919954D01*
X112059954Y-88080858D01*
X111929432Y-88267265D01*
X111929431Y-88267267D01*
X111833261Y-88473502D01*
X111833258Y-88473511D01*
X111774366Y-88693302D01*
X111774364Y-88693313D01*
X111754532Y-88919998D01*
X111754532Y-88920001D01*
X111774364Y-89146686D01*
X111774366Y-89146697D01*
X111833258Y-89366488D01*
X111833261Y-89366497D01*
X111929431Y-89572732D01*
X111929432Y-89572734D01*
X112059954Y-89759141D01*
X112220858Y-89920045D01*
X112220861Y-89920047D01*
X112407266Y-90050568D01*
X112465275Y-90077618D01*
X112517714Y-90123791D01*
X112536866Y-90190984D01*
X112516650Y-90257865D01*
X112465275Y-90302382D01*
X112407267Y-90329431D01*
X112407265Y-90329432D01*
X112220858Y-90459954D01*
X112059954Y-90620858D01*
X111929432Y-90807265D01*
X111929431Y-90807267D01*
X111833261Y-91013502D01*
X111833258Y-91013511D01*
X111774366Y-91233302D01*
X111774364Y-91233313D01*
X111754532Y-91459998D01*
X111754532Y-91460001D01*
X111774364Y-91686686D01*
X111774366Y-91686697D01*
X111833258Y-91906488D01*
X111833261Y-91906497D01*
X111929431Y-92112732D01*
X111929432Y-92112734D01*
X112059954Y-92299141D01*
X112220858Y-92460045D01*
X112220861Y-92460047D01*
X112407266Y-92590568D01*
X112465275Y-92617618D01*
X112517714Y-92663791D01*
X112536866Y-92730984D01*
X112516650Y-92797865D01*
X112465275Y-92842382D01*
X112407267Y-92869431D01*
X112407265Y-92869432D01*
X112220858Y-92999954D01*
X112059954Y-93160858D01*
X111929432Y-93347265D01*
X111929431Y-93347267D01*
X111833261Y-93553502D01*
X111833258Y-93553511D01*
X111774366Y-93773302D01*
X111774364Y-93773313D01*
X111754532Y-93999998D01*
X111754532Y-94000001D01*
X111774364Y-94226686D01*
X111774366Y-94226697D01*
X111833258Y-94446488D01*
X111833261Y-94446497D01*
X111929431Y-94652732D01*
X111929432Y-94652734D01*
X112059954Y-94839141D01*
X112220858Y-95000045D01*
X112220861Y-95000047D01*
X112407266Y-95130568D01*
X112465275Y-95157618D01*
X112517714Y-95203791D01*
X112536866Y-95270984D01*
X112516650Y-95337865D01*
X112465275Y-95382382D01*
X112407267Y-95409431D01*
X112407265Y-95409432D01*
X112220858Y-95539954D01*
X112059954Y-95700858D01*
X111929432Y-95887265D01*
X111929431Y-95887267D01*
X111833261Y-96093502D01*
X111833258Y-96093511D01*
X111774366Y-96313302D01*
X111774364Y-96313313D01*
X111754532Y-96539998D01*
X111754532Y-96540001D01*
X104205468Y-96540001D01*
X104205468Y-96540000D01*
X104185635Y-96313308D01*
X104126739Y-96093504D01*
X104030568Y-95887266D01*
X103900047Y-95700861D01*
X103900045Y-95700858D01*
X103739141Y-95539954D01*
X103552734Y-95409432D01*
X103552728Y-95409429D01*
X103494725Y-95382382D01*
X103442285Y-95336210D01*
X103423133Y-95269017D01*
X103443348Y-95202135D01*
X103494725Y-95157618D01*
X103552734Y-95130568D01*
X103739139Y-95000047D01*
X103900047Y-94839139D01*
X104030568Y-94652734D01*
X104126739Y-94446496D01*
X104185635Y-94226692D01*
X104205468Y-94000000D01*
X104185635Y-93773308D01*
X104126739Y-93553504D01*
X104030568Y-93347266D01*
X103900047Y-93160861D01*
X103900045Y-93160858D01*
X103739141Y-92999954D01*
X103552734Y-92869432D01*
X103552728Y-92869429D01*
X103494725Y-92842382D01*
X103442285Y-92796210D01*
X103423133Y-92729017D01*
X103443348Y-92662135D01*
X103494725Y-92617618D01*
X103552734Y-92590568D01*
X103739139Y-92460047D01*
X103900047Y-92299139D01*
X104030568Y-92112734D01*
X104126739Y-91906496D01*
X104185635Y-91686692D01*
X104205468Y-91460000D01*
X104185635Y-91233308D01*
X104126739Y-91013504D01*
X104030568Y-90807266D01*
X103900047Y-90620861D01*
X103900045Y-90620858D01*
X103739141Y-90459954D01*
X103552734Y-90329432D01*
X103552728Y-90329429D01*
X103494725Y-90302382D01*
X103442285Y-90256210D01*
X103423133Y-90189017D01*
X103443348Y-90122135D01*
X103494725Y-90077618D01*
X103552734Y-90050568D01*
X103739139Y-89920047D01*
X103900047Y-89759139D01*
X104030568Y-89572734D01*
X104126739Y-89366496D01*
X104185635Y-89146692D01*
X104205468Y-88920000D01*
X104185635Y-88693308D01*
X104126739Y-88473504D01*
X104030568Y-88267266D01*
X103900047Y-88080861D01*
X103900045Y-88080858D01*
X103739141Y-87919954D01*
X103552734Y-87789432D01*
X103552728Y-87789429D01*
X103494725Y-87762382D01*
X103442285Y-87716210D01*
X103423133Y-87649017D01*
X103443348Y-87582135D01*
X103494725Y-87537618D01*
X103552734Y-87510568D01*
X103739139Y-87380047D01*
X103900047Y-87219139D01*
X104030568Y-87032734D01*
X104126739Y-86826496D01*
X104185635Y-86606692D01*
X104205468Y-86380000D01*
X104185635Y-86153308D01*
X104126739Y-85933504D01*
X104030568Y-85727266D01*
X103900047Y-85540861D01*
X103900045Y-85540858D01*
X103739141Y-85379954D01*
X103552734Y-85249432D01*
X103552728Y-85249429D01*
X103494725Y-85222382D01*
X103442285Y-85176210D01*
X103423133Y-85109017D01*
X103443348Y-85042135D01*
X103494725Y-84997618D01*
X103552734Y-84970568D01*
X103739139Y-84840047D01*
X103900047Y-84679139D01*
X104030568Y-84492734D01*
X104126739Y-84286496D01*
X104185635Y-84066692D01*
X104205468Y-83840000D01*
X104185635Y-83613308D01*
X104126739Y-83393504D01*
X104030568Y-83187266D01*
X103900047Y-83000861D01*
X103900045Y-83000858D01*
X103739143Y-82839956D01*
X103714536Y-82822726D01*
X103670912Y-82768149D01*
X103663719Y-82698650D01*
X103695241Y-82636296D01*
X103755471Y-82600882D01*
X103772404Y-82597861D01*
X103807483Y-82594091D01*
X103942331Y-82543796D01*
X104057546Y-82457546D01*
X104143796Y-82342331D01*
X104194091Y-82207483D01*
X104200500Y-82147873D01*
X104200499Y-80452128D01*
X104194091Y-80392517D01*
X104187540Y-80374954D01*
X104143797Y-80257671D01*
X104143793Y-80257664D01*
X104057547Y-80142455D01*
X104057544Y-80142452D01*
X103942335Y-80056206D01*
X103942328Y-80056202D01*
X103807482Y-80005908D01*
X103807483Y-80005908D01*
X103747883Y-79999501D01*
X103747881Y-79999500D01*
X103747873Y-79999500D01*
X103747864Y-79999500D01*
X102052129Y-79999500D01*
X102052123Y-79999501D01*
X102030628Y-80001812D01*
X101961869Y-79989405D01*
X101910732Y-79941794D01*
X101894055Y-79891486D01*
X101885674Y-79811744D01*
X101827179Y-79631716D01*
X101732533Y-79467784D01*
X101657350Y-79384284D01*
X101627120Y-79321292D01*
X101625500Y-79301312D01*
X101625500Y-75349500D01*
X101645185Y-75282461D01*
X101697989Y-75236706D01*
X101749500Y-75225500D01*
X105378649Y-75225500D01*
X105445688Y-75245185D01*
X105482458Y-75281679D01*
X105601016Y-75463147D01*
X105601019Y-75463151D01*
X105601021Y-75463153D01*
X105758216Y-75633913D01*
X105758219Y-75633915D01*
X105758222Y-75633918D01*
X105941365Y-75776464D01*
X105941371Y-75776468D01*
X105941374Y-75776470D01*
X106145497Y-75886936D01*
X106259487Y-75926068D01*
X106365015Y-75962297D01*
X106365017Y-75962297D01*
X106365019Y-75962298D01*
X106593951Y-76000500D01*
X106593952Y-76000500D01*
X106826048Y-76000500D01*
X106826049Y-76000500D01*
X107054981Y-75962298D01*
X107274503Y-75886936D01*
X107478626Y-75776470D01*
X107661784Y-75633913D01*
X107670130Y-75624846D01*
X107730010Y-75588854D01*
X107799849Y-75590949D01*
X107857468Y-75630469D01*
X107877544Y-75665491D01*
X107906203Y-75742330D01*
X107906206Y-75742335D01*
X107992452Y-75857544D01*
X107992455Y-75857547D01*
X108107664Y-75943793D01*
X108107671Y-75943797D01*
X108242517Y-75994091D01*
X108242516Y-75994091D01*
X108249444Y-75994835D01*
X108302127Y-76000500D01*
X110197872Y-76000499D01*
X110257483Y-75994091D01*
X110392331Y-75943796D01*
X110507546Y-75857546D01*
X110593796Y-75742331D01*
X110644091Y-75607483D01*
X110650500Y-75547873D01*
X110650500Y-75349500D01*
X110670185Y-75282461D01*
X110722989Y-75236706D01*
X110774500Y-75225500D01*
X111317257Y-75225500D01*
X111332877Y-75227224D01*
X111332904Y-75226939D01*
X111340660Y-75227671D01*
X111340667Y-75227673D01*
X111409814Y-75225500D01*
X111439350Y-75225500D01*
X111446228Y-75224630D01*
X111452041Y-75224172D01*
X111498627Y-75222709D01*
X111517869Y-75217117D01*
X111536912Y-75213174D01*
X111556792Y-75210664D01*
X111600122Y-75193507D01*
X111605646Y-75191617D01*
X111609396Y-75190527D01*
X111650390Y-75178618D01*
X111667629Y-75168422D01*
X111685103Y-75159862D01*
X111703727Y-75152488D01*
X111703727Y-75152487D01*
X111703732Y-75152486D01*
X111741449Y-75125082D01*
X111746305Y-75121892D01*
X111786420Y-75098170D01*
X111800589Y-75083999D01*
X111815379Y-75071368D01*
X111831587Y-75059594D01*
X111861299Y-75023676D01*
X111865212Y-75019376D01*
X112383787Y-74500802D01*
X112396042Y-74490986D01*
X112395859Y-74490764D01*
X112401866Y-74485792D01*
X112401877Y-74485786D01*
X112432775Y-74452882D01*
X112449227Y-74435364D01*
X112459671Y-74424918D01*
X112470120Y-74414471D01*
X112474379Y-74408978D01*
X112478152Y-74404561D01*
X112510062Y-74370582D01*
X112519713Y-74353024D01*
X112530396Y-74336761D01*
X112542673Y-74320936D01*
X112561185Y-74278153D01*
X112563738Y-74272941D01*
X112586197Y-74232092D01*
X112591180Y-74212680D01*
X112597481Y-74194280D01*
X112605437Y-74175896D01*
X112612729Y-74129852D01*
X112613906Y-74124171D01*
X112625500Y-74079019D01*
X112625500Y-74058982D01*
X112627027Y-74039582D01*
X112627508Y-74036545D01*
X112630160Y-74019804D01*
X112625960Y-73975369D01*
X112625775Y-73973415D01*
X112625500Y-73967577D01*
X112625500Y-69082742D01*
X112627224Y-69067122D01*
X112626939Y-69067095D01*
X112627673Y-69059333D01*
X112625500Y-68990172D01*
X112625500Y-68960656D01*
X112625500Y-68960650D01*
X112624631Y-68953779D01*
X112624173Y-68947952D01*
X112622710Y-68901373D01*
X112617119Y-68882130D01*
X112613173Y-68863078D01*
X112610664Y-68843208D01*
X112593504Y-68799867D01*
X112591624Y-68794379D01*
X112578618Y-68749610D01*
X112568422Y-68732370D01*
X112559861Y-68714894D01*
X112552487Y-68696270D01*
X112552486Y-68696268D01*
X112525079Y-68658545D01*
X112521888Y-68653686D01*
X112498172Y-68613583D01*
X112498165Y-68613574D01*
X112484006Y-68599415D01*
X112471368Y-68584619D01*
X112459594Y-68568413D01*
X112453963Y-68563755D01*
X112423688Y-68538709D01*
X112419376Y-68534786D01*
X111500803Y-67616212D01*
X111490980Y-67603950D01*
X111490759Y-67604134D01*
X111485786Y-67598123D01*
X111485785Y-67598122D01*
X111435364Y-67550773D01*
X111424919Y-67540328D01*
X111414475Y-67529883D01*
X111408986Y-67525625D01*
X111404561Y-67521847D01*
X111370582Y-67489938D01*
X111370580Y-67489936D01*
X111370577Y-67489935D01*
X111353029Y-67480288D01*
X111336763Y-67469604D01*
X111320936Y-67457327D01*
X111320935Y-67457326D01*
X111320933Y-67457325D01*
X111278168Y-67438818D01*
X111272922Y-67436248D01*
X111232093Y-67413803D01*
X111232092Y-67413802D01*
X111212693Y-67408822D01*
X111194281Y-67402518D01*
X111175898Y-67394562D01*
X111175892Y-67394560D01*
X111129874Y-67387272D01*
X111124152Y-67386087D01*
X111079021Y-67374500D01*
X111079019Y-67374500D01*
X111058984Y-67374500D01*
X111039586Y-67372973D01*
X111032162Y-67371797D01*
X111019805Y-67369840D01*
X111019804Y-67369840D01*
X110973416Y-67374225D01*
X110967578Y-67374500D01*
X108310452Y-67374500D01*
X108243413Y-67354815D01*
X108222771Y-67338181D01*
X108002320Y-67117730D01*
X107761816Y-66877225D01*
X107728333Y-66815905D01*
X107725499Y-66789555D01*
X107725499Y-66018765D01*
X107745184Y-65951727D01*
X107784221Y-65913339D01*
X107826562Y-65887124D01*
X107990981Y-65737236D01*
X108125058Y-65559689D01*
X108224229Y-65360528D01*
X108277016Y-65175000D01*
X111003505Y-65175000D01*
X111056239Y-65360349D01*
X111155368Y-65559425D01*
X111289391Y-65736900D01*
X111453738Y-65886721D01*
X111642820Y-66003797D01*
X111642822Y-66003798D01*
X111850195Y-66084135D01*
X111930000Y-66099052D01*
X111930000Y-65382898D01*
X111949685Y-65315859D01*
X112002489Y-65270104D01*
X112071647Y-65260160D01*
X112094259Y-65265615D01*
X112121595Y-65275000D01*
X112209004Y-65275000D01*
X112209005Y-65275000D01*
X112285590Y-65262220D01*
X112354955Y-65270602D01*
X112408777Y-65315155D01*
X112429968Y-65381733D01*
X112430000Y-65384529D01*
X112430000Y-66099052D01*
X112509804Y-66084135D01*
X112717177Y-66003798D01*
X112717179Y-66003797D01*
X112906261Y-65886721D01*
X113070608Y-65736900D01*
X113204631Y-65559425D01*
X113303760Y-65360349D01*
X113356495Y-65175000D01*
X112642047Y-65175000D01*
X112575008Y-65155315D01*
X112529253Y-65102511D01*
X112519309Y-65033353D01*
X112521842Y-65020557D01*
X112523979Y-65012114D01*
X112523982Y-65012108D01*
X112533628Y-64895698D01*
X112516849Y-64829438D01*
X112519475Y-64759619D01*
X112559431Y-64702302D01*
X112624032Y-64675686D01*
X112637055Y-64675000D01*
X113356495Y-64675000D01*
X113303760Y-64489650D01*
X113204631Y-64290574D01*
X113070608Y-64113099D01*
X112906261Y-63963278D01*
X112717179Y-63846202D01*
X112717177Y-63846201D01*
X112509799Y-63765864D01*
X112430000Y-63750946D01*
X112430000Y-64467101D01*
X112410315Y-64534140D01*
X112357511Y-64579895D01*
X112288353Y-64589839D01*
X112265738Y-64584383D01*
X112238406Y-64575000D01*
X112238405Y-64575000D01*
X112150995Y-64575000D01*
X112150994Y-64575000D01*
X112074408Y-64587779D01*
X112005043Y-64579396D01*
X111951222Y-64534843D01*
X111930031Y-64468264D01*
X111930000Y-64465470D01*
X111930000Y-63750946D01*
X111850200Y-63765864D01*
X111642822Y-63846201D01*
X111642820Y-63846202D01*
X111453738Y-63963278D01*
X111289391Y-64113099D01*
X111155368Y-64290574D01*
X111056239Y-64489650D01*
X111003505Y-64675000D01*
X111717953Y-64675000D01*
X111784992Y-64694685D01*
X111830747Y-64747489D01*
X111840691Y-64816647D01*
X111838158Y-64829443D01*
X111836017Y-64837896D01*
X111826371Y-64954299D01*
X111826371Y-64954302D01*
X111826372Y-64954302D01*
X111841010Y-65012108D01*
X111843151Y-65020560D01*
X111840525Y-65090381D01*
X111800569Y-65147698D01*
X111735968Y-65174314D01*
X111722945Y-65175000D01*
X111003505Y-65175000D01*
X108277016Y-65175000D01*
X108285115Y-65146536D01*
X108305643Y-64925000D01*
X108296788Y-64829443D01*
X108285115Y-64703464D01*
X108285114Y-64703462D01*
X108252199Y-64587779D01*
X108224229Y-64489472D01*
X108213669Y-64468264D01*
X108125061Y-64290316D01*
X108125056Y-64290308D01*
X107990979Y-64112761D01*
X107826562Y-63962876D01*
X107826560Y-63962874D01*
X107637404Y-63845754D01*
X107637398Y-63845752D01*
X107429940Y-63765382D01*
X107211243Y-63724500D01*
X106988757Y-63724500D01*
X106770060Y-63765382D01*
X106638864Y-63816207D01*
X106562601Y-63845752D01*
X106562595Y-63845754D01*
X106373439Y-63962874D01*
X106373437Y-63962876D01*
X106209020Y-64112761D01*
X106074943Y-64290308D01*
X106074938Y-64290316D01*
X105975775Y-64489461D01*
X105975769Y-64489476D01*
X105914885Y-64703462D01*
X105914884Y-64703464D01*
X105894357Y-64924999D01*
X105894357Y-64925000D01*
X105914884Y-65146535D01*
X105914885Y-65146537D01*
X105975769Y-65360523D01*
X105975775Y-65360538D01*
X106074938Y-65559683D01*
X106074943Y-65559691D01*
X106209020Y-65737238D01*
X106373433Y-65887120D01*
X106373435Y-65887122D01*
X106373437Y-65887123D01*
X106373438Y-65887124D01*
X106415778Y-65913339D01*
X106462412Y-65965364D01*
X106474500Y-66018765D01*
X106474500Y-66616103D01*
X106459361Y-66671446D01*
X106460425Y-66671907D01*
X106457328Y-66679062D01*
X106457327Y-66679064D01*
X106449845Y-66696351D01*
X106434523Y-66731757D01*
X106432866Y-66735280D01*
X106406803Y-66786433D01*
X106406800Y-66786441D01*
X106405018Y-66794413D01*
X106397810Y-66816598D01*
X106394561Y-66824105D01*
X106385582Y-66880803D01*
X106384852Y-66884629D01*
X106372326Y-66940666D01*
X106372326Y-66940669D01*
X106372583Y-66948840D01*
X106371119Y-66972118D01*
X106369840Y-66980196D01*
X106369840Y-66980198D01*
X106375242Y-67037352D01*
X106375487Y-67041239D01*
X106377290Y-67098627D01*
X106379570Y-67106472D01*
X106383943Y-67129392D01*
X106384712Y-67137531D01*
X106404161Y-67191553D01*
X106405361Y-67195249D01*
X106409424Y-67209233D01*
X106421381Y-67250389D01*
X106421382Y-67250392D01*
X106425543Y-67257428D01*
X106435477Y-67278537D01*
X106438246Y-67286227D01*
X106438247Y-67286230D01*
X106470513Y-67333708D01*
X106472600Y-67336996D01*
X106494780Y-67374500D01*
X106501830Y-67386420D01*
X106501833Y-67386423D01*
X106507602Y-67392192D01*
X106522476Y-67410170D01*
X106527076Y-67416938D01*
X106551894Y-67438818D01*
X106570146Y-67454909D01*
X106572970Y-67457560D01*
X107499194Y-68383783D01*
X107499194Y-68383784D01*
X107509019Y-68396048D01*
X107509240Y-68395866D01*
X107514210Y-68401873D01*
X107514213Y-68401876D01*
X107514214Y-68401877D01*
X107564651Y-68449241D01*
X107585530Y-68470120D01*
X107591004Y-68474366D01*
X107595442Y-68478156D01*
X107629418Y-68510062D01*
X107629422Y-68510064D01*
X107646973Y-68519713D01*
X107663231Y-68530392D01*
X107679064Y-68542674D01*
X107701015Y-68552172D01*
X107721837Y-68561183D01*
X107727081Y-68563752D01*
X107767908Y-68586197D01*
X107787312Y-68591179D01*
X107805710Y-68597478D01*
X107824105Y-68605438D01*
X107870129Y-68612726D01*
X107875832Y-68613907D01*
X107920981Y-68625500D01*
X107941016Y-68625500D01*
X107960413Y-68627026D01*
X107980196Y-68630160D01*
X108026583Y-68625775D01*
X108032422Y-68625500D01*
X110689548Y-68625500D01*
X110756587Y-68645185D01*
X110777228Y-68661818D01*
X111338181Y-69222772D01*
X111371665Y-69284093D01*
X111374499Y-69310451D01*
X111374499Y-73689547D01*
X111354814Y-73756586D01*
X111338180Y-73777228D01*
X111177226Y-73938182D01*
X111115905Y-73971666D01*
X111089547Y-73974500D01*
X110774499Y-73974500D01*
X110707460Y-73954815D01*
X110661705Y-73902011D01*
X110650499Y-73850500D01*
X110650499Y-73652129D01*
X110650498Y-73652123D01*
X110646492Y-73614858D01*
X110644091Y-73592517D01*
X110634233Y-73566087D01*
X110593797Y-73457671D01*
X110593793Y-73457664D01*
X110507547Y-73342455D01*
X110507544Y-73342452D01*
X110392335Y-73256206D01*
X110392328Y-73256202D01*
X110257482Y-73205908D01*
X110257483Y-73205908D01*
X110197883Y-73199501D01*
X110197881Y-73199500D01*
X110197873Y-73199500D01*
X110197864Y-73199500D01*
X108302129Y-73199500D01*
X108302123Y-73199501D01*
X108242516Y-73205908D01*
X108107671Y-73256202D01*
X108107664Y-73256206D01*
X107992455Y-73342452D01*
X107992452Y-73342455D01*
X107906206Y-73457664D01*
X107906203Y-73457670D01*
X107877544Y-73534508D01*
X107835672Y-73590441D01*
X107770208Y-73614858D01*
X107701935Y-73600006D01*
X107670135Y-73575158D01*
X107661784Y-73566087D01*
X107661778Y-73566082D01*
X107661777Y-73566081D01*
X107478634Y-73423535D01*
X107478628Y-73423531D01*
X107274504Y-73313064D01*
X107274495Y-73313061D01*
X107054984Y-73237702D01*
X106864450Y-73205908D01*
X106826049Y-73199500D01*
X106593951Y-73199500D01*
X106555550Y-73205908D01*
X106365015Y-73237702D01*
X106145504Y-73313061D01*
X106145495Y-73313064D01*
X105941371Y-73423531D01*
X105941365Y-73423535D01*
X105758222Y-73566081D01*
X105758219Y-73566084D01*
X105758216Y-73566086D01*
X105758216Y-73566087D01*
X105713319Y-73614858D01*
X105601016Y-73736852D01*
X105482458Y-73918321D01*
X105429311Y-73963678D01*
X105378649Y-73974500D01*
X101482737Y-73974500D01*
X101467120Y-73972776D01*
X101467093Y-73973062D01*
X101459331Y-73972327D01*
X101390203Y-73974500D01*
X101360650Y-73974500D01*
X101359929Y-73974590D01*
X101353757Y-73975369D01*
X101347945Y-73975826D01*
X101301372Y-73977290D01*
X101301369Y-73977291D01*
X101282126Y-73982881D01*
X101263083Y-73986825D01*
X101243204Y-73989336D01*
X101243203Y-73989337D01*
X101199878Y-74006490D01*
X101194352Y-74008382D01*
X101149608Y-74021383D01*
X101149604Y-74021385D01*
X101132365Y-74031580D01*
X101114898Y-74040137D01*
X101096269Y-74047512D01*
X101096267Y-74047513D01*
X101058564Y-74074906D01*
X101053682Y-74078112D01*
X101013580Y-74101828D01*
X100999408Y-74116000D01*
X100984623Y-74128628D01*
X100968412Y-74140407D01*
X100938709Y-74176310D01*
X100934777Y-74180631D01*
X100616208Y-74499199D01*
X100603951Y-74509020D01*
X100604134Y-74509241D01*
X100598123Y-74514213D01*
X100550772Y-74564636D01*
X100529889Y-74585519D01*
X100529877Y-74585532D01*
X100525621Y-74591017D01*
X100521837Y-74595447D01*
X100489937Y-74629418D01*
X100489936Y-74629420D01*
X100480284Y-74646976D01*
X100469610Y-74663226D01*
X100457329Y-74679061D01*
X100457324Y-74679068D01*
X100438815Y-74721838D01*
X100436245Y-74727084D01*
X100413803Y-74767906D01*
X100408822Y-74787307D01*
X100402521Y-74805710D01*
X100394562Y-74824102D01*
X100394561Y-74824105D01*
X100387271Y-74870127D01*
X100386087Y-74875846D01*
X100374501Y-74920972D01*
X100374500Y-74920982D01*
X100374500Y-74941016D01*
X100372973Y-74960415D01*
X100369840Y-74980194D01*
X100369839Y-74980197D01*
X100374224Y-75026585D01*
X100374499Y-75032421D01*
X100374500Y-79301312D01*
X100354815Y-79368351D01*
X100342650Y-79384284D01*
X100267466Y-79467784D01*
X100172821Y-79631715D01*
X100172818Y-79631722D01*
X100114327Y-79811740D01*
X100114326Y-79811744D01*
X100094540Y-80000000D01*
X100114326Y-80188256D01*
X100114327Y-80188259D01*
X100172818Y-80368277D01*
X100172820Y-80368281D01*
X100172821Y-80368284D01*
X100186812Y-80392517D01*
X100242228Y-80488501D01*
X100258700Y-80556401D01*
X100235847Y-80622428D01*
X100180925Y-80665618D01*
X100134840Y-80674500D01*
X99782737Y-80674500D01*
X99767120Y-80672776D01*
X99767093Y-80673062D01*
X99759331Y-80672327D01*
X99690203Y-80674500D01*
X99660650Y-80674500D01*
X99659929Y-80674590D01*
X99653757Y-80675369D01*
X99647945Y-80675826D01*
X99601372Y-80677290D01*
X99601369Y-80677291D01*
X99582126Y-80682881D01*
X99563083Y-80686825D01*
X99543204Y-80689336D01*
X99543203Y-80689337D01*
X99499878Y-80706490D01*
X99494352Y-80708382D01*
X99449608Y-80721383D01*
X99449604Y-80721385D01*
X99432365Y-80731580D01*
X99414898Y-80740137D01*
X99396269Y-80747512D01*
X99396267Y-80747513D01*
X99358564Y-80774906D01*
X99353682Y-80778112D01*
X99313580Y-80801828D01*
X99299408Y-80816000D01*
X99284623Y-80828628D01*
X99268412Y-80840407D01*
X99238709Y-80876310D01*
X99234777Y-80880631D01*
X98616208Y-81499199D01*
X98603951Y-81509020D01*
X98604134Y-81509241D01*
X98598123Y-81514213D01*
X98550772Y-81564636D01*
X98529889Y-81585519D01*
X98529877Y-81585532D01*
X98525621Y-81591017D01*
X98521837Y-81595447D01*
X98489937Y-81629418D01*
X98489936Y-81629420D01*
X98480284Y-81646976D01*
X98469610Y-81663226D01*
X98457329Y-81679061D01*
X98457324Y-81679068D01*
X98438815Y-81721838D01*
X98436245Y-81727084D01*
X98413803Y-81767906D01*
X98408822Y-81787307D01*
X98402521Y-81805710D01*
X98394562Y-81824102D01*
X98394561Y-81824105D01*
X98387271Y-81870127D01*
X98386087Y-81875846D01*
X98374501Y-81920972D01*
X98374500Y-81920982D01*
X98374500Y-81941016D01*
X98372973Y-81960415D01*
X98369840Y-81980194D01*
X98369839Y-81980197D01*
X83000000Y-81980197D01*
X83000000Y-59999999D01*
X86794958Y-59999999D01*
X86815110Y-60358846D01*
X86815112Y-60358858D01*
X86875314Y-60713185D01*
X86875316Y-60713194D01*
X86974812Y-61058552D01*
X87112353Y-61390609D01*
X87112355Y-61390613D01*
X87286215Y-61705189D01*
X87286218Y-61705194D01*
X87494193Y-61998306D01*
X87566843Y-62079601D01*
X88781100Y-60865344D01*
X88842423Y-60831859D01*
X88912115Y-60836843D01*
X88956871Y-60868440D01*
X88958062Y-60867250D01*
X89132750Y-61041939D01*
X89131382Y-61043306D01*
X89165374Y-61094375D01*
X89166496Y-61164236D01*
X89134654Y-61218898D01*
X87920396Y-62433155D01*
X88001693Y-62505806D01*
X88294805Y-62713781D01*
X88294810Y-62713784D01*
X88609386Y-62887644D01*
X88609390Y-62887646D01*
X88941447Y-63025187D01*
X89286805Y-63124683D01*
X89286814Y-63124685D01*
X89641141Y-63184887D01*
X89641153Y-63184889D01*
X89999999Y-63205041D01*
X90358846Y-63184889D01*
X90358858Y-63184887D01*
X90713185Y-63124685D01*
X90713194Y-63124683D01*
X91058552Y-63025187D01*
X91390609Y-62887646D01*
X91390613Y-62887644D01*
X91705189Y-62713784D01*
X91705194Y-62713781D01*
X91998306Y-62505806D01*
X92079601Y-62433155D01*
X90865345Y-61218899D01*
X90831860Y-61157576D01*
X90836844Y-61087884D01*
X90868447Y-61043136D01*
X90867250Y-61041939D01*
X91041939Y-60867250D01*
X91043311Y-60868622D01*
X91094345Y-60834635D01*
X91164205Y-60833494D01*
X91218898Y-60865345D01*
X92433155Y-62079601D01*
X92505806Y-61998306D01*
X92713781Y-61705194D01*
X92713784Y-61705189D01*
X92887644Y-61390613D01*
X92887646Y-61390609D01*
X93025187Y-61058552D01*
X93124683Y-60713194D01*
X93124685Y-60713185D01*
X93184887Y-60358858D01*
X93184889Y-60358846D01*
X93205041Y-60000000D01*
X146794958Y-60000000D01*
X146815110Y-60358846D01*
X146815112Y-60358858D01*
X146875314Y-60713185D01*
X146875316Y-60713194D01*
X146974812Y-61058552D01*
X147112353Y-61390609D01*
X147112355Y-61390613D01*
X147286215Y-61705189D01*
X147286218Y-61705194D01*
X147494193Y-61998306D01*
X147566843Y-62079601D01*
X148781100Y-60865344D01*
X148842423Y-60831859D01*
X148912115Y-60836843D01*
X148956871Y-60868440D01*
X148958062Y-60867250D01*
X149132750Y-61041939D01*
X149131382Y-61043306D01*
X149165374Y-61094375D01*
X149166496Y-61164236D01*
X149134654Y-61218898D01*
X147920396Y-62433155D01*
X148001693Y-62505806D01*
X148294805Y-62713781D01*
X148294810Y-62713784D01*
X148609386Y-62887644D01*
X148609390Y-62887646D01*
X148941447Y-63025187D01*
X149286805Y-63124683D01*
X149286814Y-63124685D01*
X149641141Y-63184887D01*
X149641153Y-63184889D01*
X149999999Y-63205041D01*
X150358846Y-63184889D01*
X150358858Y-63184887D01*
X150713185Y-63124685D01*
X150713194Y-63124683D01*
X151058552Y-63025187D01*
X151390609Y-62887646D01*
X151390613Y-62887644D01*
X151705189Y-62713784D01*
X151705194Y-62713781D01*
X151998306Y-62505806D01*
X152079601Y-62433155D01*
X150865345Y-61218899D01*
X150831860Y-61157576D01*
X150836844Y-61087884D01*
X150868447Y-61043136D01*
X150867250Y-61041939D01*
X151041939Y-60867250D01*
X151043311Y-60868622D01*
X151094345Y-60834635D01*
X151164205Y-60833494D01*
X151218898Y-60865345D01*
X152433155Y-62079601D01*
X152505806Y-61998306D01*
X152713781Y-61705194D01*
X152713784Y-61705189D01*
X152887644Y-61390613D01*
X152887646Y-61390609D01*
X153025187Y-61058552D01*
X153124683Y-60713194D01*
X153124685Y-60713185D01*
X153184887Y-60358858D01*
X153184889Y-60358846D01*
X153205041Y-60000000D01*
X153184889Y-59641153D01*
X153184887Y-59641141D01*
X153124685Y-59286814D01*
X153124683Y-59286805D01*
X153025187Y-58941447D01*
X152887646Y-58609390D01*
X152887644Y-58609386D01*
X152713784Y-58294810D01*
X152713781Y-58294805D01*
X152505806Y-58001693D01*
X152433155Y-57920397D01*
X151218898Y-59134654D01*
X151157575Y-59168139D01*
X151087883Y-59163155D01*
X151043137Y-59131551D01*
X151041939Y-59132750D01*
X150867250Y-58958062D01*
X150868610Y-58956701D01*
X150834609Y-58905574D01*
X150833515Y-58835713D01*
X150865344Y-58781100D01*
X152079601Y-57566843D01*
X151998306Y-57494193D01*
X151705194Y-57286218D01*
X151705189Y-57286215D01*
X151390613Y-57112355D01*
X151390609Y-57112353D01*
X151058552Y-56974812D01*
X150713194Y-56875316D01*
X150713185Y-56875314D01*
X150358858Y-56815112D01*
X150358846Y-56815110D01*
X150000000Y-56794958D01*
X149641153Y-56815110D01*
X149641141Y-56815112D01*
X149286814Y-56875314D01*
X149286805Y-56875316D01*
X148941447Y-56974812D01*
X148609390Y-57112353D01*
X148609386Y-57112355D01*
X148294810Y-57286215D01*
X148294805Y-57286218D01*
X148001693Y-57494194D01*
X148001685Y-57494199D01*
X147920397Y-57566842D01*
X147920397Y-57566843D01*
X149134655Y-58781101D01*
X149168140Y-58842424D01*
X149163156Y-58912116D01*
X149131558Y-58956870D01*
X149132750Y-58958062D01*
X148958062Y-59132750D01*
X148956704Y-59131392D01*
X148905551Y-59165396D01*
X148835689Y-59166476D01*
X148781101Y-59134654D01*
X147566843Y-57920396D01*
X147566842Y-57920397D01*
X147494199Y-58001685D01*
X147494194Y-58001693D01*
X147286218Y-58294805D01*
X147286215Y-58294810D01*
X147112355Y-58609386D01*
X147112353Y-58609390D01*
X146974812Y-58941447D01*
X146875316Y-59286805D01*
X146875314Y-59286814D01*
X146815112Y-59641141D01*
X146815110Y-59641153D01*
X146794958Y-60000000D01*
X93205041Y-60000000D01*
X93184889Y-59641153D01*
X93184887Y-59641141D01*
X93124685Y-59286814D01*
X93124683Y-59286805D01*
X93025187Y-58941447D01*
X92887646Y-58609390D01*
X92887644Y-58609386D01*
X92713784Y-58294810D01*
X92713781Y-58294805D01*
X92505806Y-58001693D01*
X92433155Y-57920397D01*
X91218898Y-59134654D01*
X91157575Y-59168139D01*
X91087883Y-59163155D01*
X91043137Y-59131551D01*
X91041939Y-59132750D01*
X90867250Y-58958062D01*
X90868610Y-58956701D01*
X90834609Y-58905574D01*
X90833515Y-58835713D01*
X90865344Y-58781100D01*
X92079601Y-57566843D01*
X91998306Y-57494193D01*
X91705194Y-57286218D01*
X91705189Y-57286215D01*
X91390613Y-57112355D01*
X91390609Y-57112353D01*
X91058552Y-56974812D01*
X90713194Y-56875316D01*
X90713185Y-56875314D01*
X90358858Y-56815112D01*
X90358846Y-56815110D01*
X89999999Y-56794958D01*
X89641153Y-56815110D01*
X89641141Y-56815112D01*
X89286814Y-56875314D01*
X89286805Y-56875316D01*
X88941447Y-56974812D01*
X88609390Y-57112353D01*
X88609386Y-57112355D01*
X88294810Y-57286215D01*
X88294805Y-57286218D01*
X88001693Y-57494194D01*
X88001685Y-57494199D01*
X87920397Y-57566842D01*
X87920397Y-57566843D01*
X89134655Y-58781101D01*
X89168140Y-58842424D01*
X89163156Y-58912116D01*
X89131558Y-58956870D01*
X89132750Y-58958062D01*
X88958062Y-59132750D01*
X88956704Y-59131392D01*
X88905551Y-59165396D01*
X88835689Y-59166476D01*
X88781101Y-59134654D01*
X87566843Y-57920396D01*
X87566842Y-57920397D01*
X87494199Y-58001685D01*
X87494194Y-58001693D01*
X87286218Y-58294805D01*
X87286215Y-58294810D01*
X87112355Y-58609386D01*
X87112353Y-58609390D01*
X86974812Y-58941447D01*
X86875316Y-59286805D01*
X86875314Y-59286814D01*
X86815112Y-59641141D01*
X86815110Y-59641153D01*
X86794958Y-59999999D01*
X83000000Y-59999999D01*
X83000000Y-55124000D01*
X83019685Y-55056961D01*
X83072489Y-55011206D01*
X83124000Y-55000000D01*
X156876000Y-55000000D01*
X156943039Y-55019685D01*
G37*
%TD.AperFunction*%
%TD*%
M02*
