%TF.GenerationSoftware,KiCad,Pcbnew,7.0.7*%
%TF.CreationDate,2023-10-30T18:48:05-04:00*%
%TF.ProjectId,TEJ4M-Unit-4-07,54454a34-4d2d-4556-9e69-742d342d3037,rev?*%
%TF.SameCoordinates,Original*%
%TF.FileFunction,Soldermask,Bot*%
%TF.FilePolarity,Negative*%
%FSLAX46Y46*%
G04 Gerber Fmt 4.6, Leading zero omitted, Abs format (unit mm)*
G04 Created by KiCad (PCBNEW 7.0.7) date 2023-10-30 18:48:05*
%MOMM*%
%LPD*%
G01*
G04 APERTURE LIST*
%ADD10C,1.400000*%
%ADD11O,1.400000X1.400000*%
%ADD12C,5.400000*%
%ADD13R,1.600000X1.600000*%
%ADD14O,1.600000X1.600000*%
%ADD15C,1.800000*%
%ADD16R,1.800000X1.800000*%
G04 APERTURE END LIST*
D10*
%TO.C,R4*%
X99900000Y-107925000D03*
D11*
X94820000Y-107925000D03*
%TD*%
D10*
%TO.C,R3*%
X147080000Y-108000000D03*
D11*
X142000000Y-108000000D03*
%TD*%
%TO.C,R2*%
X112180000Y-64925000D03*
D10*
X107100000Y-64925000D03*
%TD*%
D11*
%TO.C,R1*%
X137080000Y-64925000D03*
D10*
X132000000Y-64925000D03*
%TD*%
D12*
%TO.C,H4*%
X90000000Y-120000000D03*
%TD*%
%TO.C,H3*%
X150000000Y-120000000D03*
%TD*%
%TO.C,H2*%
X150000000Y-60000000D03*
%TD*%
%TO.C,H1*%
X90000000Y-60000000D03*
%TD*%
D13*
%TO.C,U4*%
X129200000Y-108200000D03*
D14*
X129200000Y-110740000D03*
X129200000Y-113280000D03*
X129200000Y-115820000D03*
X136820000Y-115820000D03*
X136820000Y-113280000D03*
X136820000Y-110740000D03*
X136820000Y-108200000D03*
%TD*%
%TO.C,U3*%
X111820000Y-108200000D03*
X111820000Y-110740000D03*
X111820000Y-113280000D03*
X111820000Y-115820000D03*
X104200000Y-115820000D03*
X104200000Y-113280000D03*
X104200000Y-110740000D03*
D13*
X104200000Y-108200000D03*
%TD*%
D14*
%TO.C,U2*%
X138060000Y-81375000D03*
X138060000Y-83915000D03*
X138060000Y-86455000D03*
X138060000Y-88995000D03*
X138060000Y-91535000D03*
X138060000Y-94075000D03*
X138060000Y-96615000D03*
X127900000Y-96615000D03*
X127900000Y-94075000D03*
X127900000Y-91535000D03*
X127900000Y-88995000D03*
X127900000Y-86455000D03*
X127900000Y-83915000D03*
D13*
X127900000Y-81375000D03*
%TD*%
D15*
%TO.C,D2*%
X106710000Y-74600000D03*
D16*
X109250000Y-74600000D03*
%TD*%
%TO.C,D1*%
X134250000Y-74600000D03*
D15*
X131710000Y-74600000D03*
%TD*%
D14*
%TO.C,U1*%
X113060000Y-81300000D03*
X113060000Y-83840000D03*
X113060000Y-86380000D03*
X113060000Y-88920000D03*
X113060000Y-91460000D03*
X113060000Y-94000000D03*
X113060000Y-96540000D03*
X102900000Y-96540000D03*
X102900000Y-94000000D03*
X102900000Y-91460000D03*
X102900000Y-88920000D03*
X102900000Y-86380000D03*
X102900000Y-83840000D03*
D13*
X102900000Y-81300000D03*
%TD*%
M02*
