M48
; DRILL file {KiCad 7.0.7} date Mon Oct 30 18:54:50 2023
; FORMAT={-:-/ absolute / inch / decimal}
; #@! TF.CreationDate,2023-10-30T18:54:50-04:00
; #@! TF.GenerationSoftware,Kicad,Pcbnew,7.0.7
; #@! TF.FileFunction,Plated,1,2,PTH
FMAT,2
INCH
; #@! TA.AperFunction,Plated,PTH,ViaDrill
T1C0.0157
; #@! TA.AperFunction,Plated,PTH,ComponentDrill
T2C0.0276
; #@! TA.AperFunction,Plated,PTH,ComponentDrill
T3C0.0315
; #@! TA.AperFunction,Plated,PTH,ComponentDrill
T4C0.0354
; #@! TA.AperFunction,Plated,PTH,ComponentDrill
T5C0.1063
%
G90
G05
T1
X3.9764Y-3.1496
X3.9764Y-3.3465
X4.9213Y-3.1496
X4.9213Y-3.2677
X4.9606Y-3.3465
X4.9606Y-3.4646
T2
X3.7331Y-4.249
X3.9331Y-4.249
X4.2165Y-2.5561
X4.4165Y-2.5561
X5.1969Y-2.5561
X5.3969Y-2.5561
X5.5906Y-4.252
X5.7906Y-4.252
T3
X4.0512Y-3.2008
X4.0512Y-3.3008
X4.0512Y-3.4008
X4.0512Y-3.5008
X4.0512Y-3.6008
X4.0512Y-3.7008
X4.0512Y-3.8008
X4.1024Y-4.2598
X4.1024Y-4.3598
X4.1024Y-4.4598
X4.1024Y-4.5598
X4.4024Y-4.2598
X4.4024Y-4.3598
X4.4024Y-4.4598
X4.4024Y-4.5598
X4.4512Y-3.2008
X4.4512Y-3.3008
X4.4512Y-3.4008
X4.4512Y-3.5008
X4.4512Y-3.6008
X4.4512Y-3.7008
X4.4512Y-3.8008
X5.0354Y-3.2037
X5.0354Y-3.3037
X5.0354Y-3.4037
X5.0354Y-3.5037
X5.0354Y-3.6037
X5.0354Y-3.7037
X5.0354Y-3.8037
X5.0866Y-4.2598
X5.0866Y-4.3598
X5.0866Y-4.4598
X5.0866Y-4.5598
X5.3866Y-4.2598
X5.3866Y-4.3598
X5.3866Y-4.4598
X5.3866Y-4.5598
X5.4354Y-3.2037
X5.4354Y-3.3037
X5.4354Y-3.4037
X5.4354Y-3.5037
X5.4354Y-3.6037
X5.4354Y-3.7037
X5.4354Y-3.8037
T4
X4.2012Y-2.937
X4.3012Y-2.937
X5.1854Y-2.937
X5.2854Y-2.937
T5
X3.5433Y-2.3622
X3.5433Y-4.7244
X5.9055Y-2.3622
X5.9055Y-4.7244
T0
M30
